<svg width="134" height="17" viewBox="0 0 134 17" fill="none" xmlns="http://www.w3.org/2000/svg">
<path d="M23.812 8.142C23.812 7.31133 23.9333 6.57867 24.176 5.944C24.428 5.30933 24.764 4.782 25.184 4.362C25.6133 3.93267 26.108 3.61067 26.668 3.396C27.2373 3.18133 27.8393 3.074 28.474 3.074C29.0993 3.074 29.6873 3.18133 30.238 3.396C30.798 3.61067 31.288 3.93267 31.708 4.362C32.128 4.782 32.4593 5.30933 32.702 5.944C32.954 6.57867 33.08 7.31133 33.08 8.142C33.08 8.97267 32.954 9.70533 32.702 10.34C32.4593 10.9747 32.128 11.5067 31.708 11.936C31.288 12.356 30.798 12.6733 30.238 12.888C29.6873 13.1027 29.0993 13.21 28.474 13.21C27.8393 13.21 27.2373 13.1027 26.668 12.888C26.108 12.6733 25.6133 12.356 25.184 11.936C24.764 11.5067 24.428 10.9747 24.176 10.34C23.9333 9.70533 23.812 8.97267 23.812 8.142ZM25.24 8.142C25.24 8.73 25.3147 9.26667 25.464 9.752C25.6133 10.228 25.8233 10.634 26.094 10.97C26.374 11.306 26.71 11.5673 27.102 11.754C27.5033 11.9313 27.9513 12.02 28.446 12.02C28.9407 12.02 29.384 11.9313 29.776 11.754C30.168 11.5673 30.4993 11.306 30.77 10.97C31.05 10.634 31.2647 10.228 31.414 9.752C31.5633 9.26667 31.638 8.73 31.638 8.142C31.638 7.554 31.5633 7.022 31.414 6.546C31.2647 6.06067 31.05 5.65 30.77 5.314C30.4993 4.978 30.168 4.72133 29.776 4.544C29.384 4.35733 28.9407 4.264 28.446 4.264C27.9513 4.264 27.5033 4.35733 27.102 4.544C26.71 4.72133 26.374 4.978 26.094 5.314C25.8233 5.65 25.6133 6.06067 25.464 6.546C25.3147 7.022 25.24 7.554 25.24 8.142ZM35.8425 5.72V7.862C35.8425 8.41267 35.9825 8.8 36.2625 9.024C36.5425 9.23867 36.9252 9.346 37.4105 9.346C37.7652 9.346 38.0592 9.32733 38.2925 9.29C38.5352 9.25267 38.7498 9.21067 38.9365 9.164V5.72H40.2385V13H38.9365V10.172C38.8618 10.1907 38.7638 10.214 38.6425 10.242C38.5212 10.27 38.3812 10.298 38.2225 10.326C38.0732 10.3447 37.9145 10.3633 37.7465 10.382C37.5785 10.4007 37.4152 10.41 37.2565 10.41C36.8552 10.41 36.4865 10.368 36.1505 10.284C35.8238 10.2 35.5392 10.06 35.2965 9.864C35.0632 9.668 34.8765 9.41133 34.7365 9.094C34.6058 8.76733 34.5405 8.36133 34.5405 7.876V5.72H35.8425ZM48.5993 5.72V13H47.3393V7.456C47.0593 7.81067 46.7513 8.226 46.4153 8.702C46.0793 9.178 45.7433 9.67267 45.4073 10.186C45.0713 10.69 44.7493 11.1893 44.4413 11.684C44.1333 12.1787 43.8673 12.6173 43.6433 13H42.4813V5.72H43.7413V10.956C43.984 10.5547 44.2593 10.116 44.5673 9.64C44.8753 9.15467 45.1927 8.67867 45.5193 8.212C45.8553 7.736 46.1867 7.28333 46.5133 6.854C46.8493 6.41533 47.162 6.03733 47.4513 5.72H48.5993ZM53.9988 13.168C53.4108 13.168 52.8928 13.0747 52.4448 12.888C52.0062 12.7013 51.6328 12.44 51.3248 12.104C51.0262 11.768 50.8022 11.3713 50.6528 10.914C50.5035 10.4473 50.4288 9.934 50.4288 9.374C50.4288 8.814 50.5082 8.30067 50.6668 7.834C50.8348 7.36733 51.0682 6.966 51.3668 6.63C51.6655 6.28467 52.0295 6.01867 52.4588 5.832C52.8975 5.636 53.3828 5.538 53.9148 5.538C54.2415 5.538 54.5682 5.566 54.8948 5.622C55.2215 5.678 55.5342 5.76667 55.8328 5.888L55.5388 6.994C55.3428 6.90067 55.1142 6.826 54.8528 6.77C54.6008 6.714 54.3302 6.686 54.0408 6.686C53.3128 6.686 52.7528 6.91467 52.3608 7.372C51.9782 7.82933 51.7868 8.49667 51.7868 9.374C51.7868 9.766 51.8288 10.1253 51.9128 10.452C52.0062 10.7787 52.1462 11.0587 52.3328 11.292C52.5288 11.5253 52.7762 11.7073 53.0748 11.838C53.3735 11.9593 53.7375 12.02 54.1668 12.02C54.5122 12.02 54.8248 11.9873 55.1048 11.922C55.3848 11.8567 55.6042 11.7867 55.7628 11.712L55.9448 12.804C55.8702 12.8507 55.7628 12.8973 55.6228 12.944C55.4828 12.9813 55.3242 13.014 55.1468 13.042C54.9695 13.0793 54.7782 13.1073 54.5728 13.126C54.3768 13.154 54.1855 13.168 53.9988 13.168ZM62.6857 5.72V6.812H60.3197V13H59.0177V6.812H56.6517V5.72H62.6857ZM70.1462 5.72V13H68.8862V7.456C68.6062 7.81067 68.2982 8.226 67.9622 8.702C67.6262 9.178 67.2902 9.67267 66.9542 10.186C66.6182 10.69 66.2962 11.1893 65.9882 11.684C65.6802 12.1787 65.4142 12.6173 65.1902 13H64.0282V5.72H65.2882V10.956C65.5309 10.5547 65.8062 10.116 66.1142 9.64C66.4222 9.15467 66.7395 8.67867 67.0662 8.212C67.4022 7.736 67.7335 7.28333 68.0602 6.854C68.3962 6.41533 68.7089 6.03733 68.9982 5.72H70.1462ZM77.5197 5.72V6.812H75.1537V13H73.8517V6.812H71.4857V5.72H77.5197ZM81.6202 12.09C82.1709 12.09 82.6049 11.9827 82.9222 11.768C83.2395 11.5533 83.3982 11.208 83.3982 10.732C83.3982 10.4987 83.3515 10.298 83.2582 10.13C83.1649 9.962 83.0342 9.82667 82.8662 9.724C82.7075 9.612 82.5209 9.53267 82.3062 9.486C82.0915 9.43 81.8629 9.402 81.6202 9.402C81.3682 9.402 81.1069 9.41133 80.8362 9.43C80.5749 9.43933 80.3509 9.46733 80.1642 9.514V12.02C80.2202 12.0293 80.3042 12.0387 80.4162 12.048C80.5282 12.0573 80.6495 12.0667 80.7802 12.076C80.9202 12.076 81.0602 12.0807 81.2002 12.09C81.3495 12.09 81.4895 12.09 81.6202 12.09ZM78.8622 12.846V5.72H80.1642V8.506C80.2389 8.48733 80.3369 8.46867 80.4582 8.45C80.5889 8.43133 80.7242 8.41267 80.8642 8.394C81.0135 8.37533 81.1675 8.36133 81.3262 8.352C81.4849 8.34267 81.6342 8.338 81.7742 8.338C82.1755 8.338 82.5535 8.38467 82.9082 8.478C83.2629 8.562 83.5709 8.702 83.8322 8.898C84.1029 9.08467 84.3175 9.332 84.4762 9.64C84.6349 9.93867 84.7142 10.298 84.7142 10.718C84.7142 11.1567 84.6395 11.53 84.4902 11.838C84.3409 12.146 84.1262 12.398 83.8462 12.594C83.5662 12.79 83.2302 12.93 82.8382 13.014C82.4555 13.1073 82.0262 13.154 81.5502 13.154C81.0835 13.154 80.6262 13.126 80.1782 13.07C79.7302 13.0233 79.2915 12.9487 78.8622 12.846ZM92.6629 13.168C92.0749 13.168 91.5569 13.0747 91.1089 12.888C90.6702 12.7013 90.2969 12.44 89.9889 12.104C89.6902 11.768 89.4662 11.3713 89.3169 10.914C89.1676 10.4473 89.0929 9.934 89.0929 9.374C89.0929 8.814 89.1722 8.30067 89.3309 7.834C89.4989 7.36733 89.7322 6.966 90.0309 6.63C90.3296 6.28467 90.6936 6.01867 91.1229 5.832C91.5616 5.636 92.0469 5.538 92.5789 5.538C92.9056 5.538 93.2322 5.566 93.5589 5.622C93.8856 5.678 94.1982 5.76667 94.4969 5.888L94.2029 6.994C94.0069 6.90067 93.7782 6.826 93.5169 6.77C93.2649 6.714 92.9942 6.686 92.7049 6.686C91.9769 6.686 91.4169 6.91467 91.0249 7.372C90.6422 7.82933 90.4509 8.49667 90.4509 9.374C90.4509 9.766 90.4929 10.1253 90.5769 10.452C90.6702 10.7787 90.8102 11.0587 90.9969 11.292C91.1929 11.5253 91.4402 11.7073 91.7389 11.838C92.0376 11.9593 92.4016 12.02 92.8309 12.02C93.1762 12.02 93.4889 11.9873 93.7689 11.922C94.0489 11.8567 94.2682 11.7867 94.4269 11.712L94.6089 12.804C94.5342 12.8507 94.4269 12.8973 94.2869 12.944C94.1469 12.9813 93.9882 13.014 93.8109 13.042C93.6336 13.0793 93.4422 13.1073 93.2369 13.126C93.0409 13.154 92.8496 13.168 92.6629 13.168ZM101.859 13H100.557V6.812H97.3087V13H96.0067V5.72H101.859V13ZM110.218 5.72V13H108.958V7.456C108.678 7.81067 108.37 8.226 108.034 8.702C107.698 9.178 107.362 9.67267 107.026 10.186C106.69 10.69 106.368 11.1893 106.06 11.684C105.752 12.1787 105.486 12.6173 105.262 13H104.1V5.72H105.36V10.956C105.603 10.5547 105.878 10.116 106.186 9.64C106.494 9.15467 106.812 8.67867 107.138 8.212C107.474 7.736 107.806 7.28333 108.132 6.854C108.468 6.41533 108.781 6.03733 109.07 5.72H110.218ZM115.618 13.168C115.03 13.168 114.512 13.0747 114.064 12.888C113.625 12.7013 113.252 12.44 112.944 12.104C112.645 11.768 112.421 11.3713 112.272 10.914C112.123 10.4473 112.048 9.934 112.048 9.374C112.048 8.814 112.127 8.30067 112.286 7.834C112.454 7.36733 112.687 6.966 112.986 6.63C113.285 6.28467 113.649 6.01867 114.078 5.832C114.517 5.636 115.002 5.538 115.534 5.538C115.861 5.538 116.187 5.566 116.514 5.622C116.841 5.678 117.153 5.76667 117.452 5.888L117.158 6.994C116.962 6.90067 116.733 6.826 116.472 6.77C116.22 6.714 115.949 6.686 115.66 6.686C114.932 6.686 114.372 6.91467 113.98 7.372C113.597 7.82933 113.406 8.49667 113.406 9.374C113.406 9.766 113.448 10.1253 113.532 10.452C113.625 10.7787 113.765 11.0587 113.952 11.292C114.148 11.5253 114.395 11.7073 114.694 11.838C114.993 11.9593 115.357 12.02 115.786 12.02C116.131 12.02 116.444 11.9873 116.724 11.922C117.004 11.8567 117.223 11.7867 117.382 11.712L117.564 12.804C117.489 12.8507 117.382 12.8973 117.242 12.944C117.102 12.9813 116.943 13.014 116.766 13.042C116.589 13.0793 116.397 13.1073 116.192 13.126C115.996 13.154 115.805 13.168 115.618 13.168ZM125.21 9.36C125.21 9.93867 125.126 10.4613 124.958 10.928C124.79 11.3947 124.552 11.796 124.244 12.132C123.945 12.468 123.586 12.7293 123.166 12.916C122.746 13.0933 122.289 13.182 121.794 13.182C121.299 13.182 120.842 13.0933 120.422 12.916C120.002 12.7293 119.638 12.468 119.33 12.132C119.031 11.796 118.798 11.3947 118.63 10.928C118.462 10.4613 118.378 9.93867 118.378 9.36C118.378 8.79067 118.462 8.27267 118.63 7.806C118.798 7.33 119.031 6.924 119.33 6.588C119.638 6.252 120.002 5.99533 120.422 5.818C120.842 5.63133 121.299 5.538 121.794 5.538C122.289 5.538 122.746 5.63133 123.166 5.818C123.586 5.99533 123.945 6.252 124.244 6.588C124.552 6.924 124.79 7.33 124.958 7.806C125.126 8.27267 125.21 8.79067 125.21 9.36ZM123.852 9.36C123.852 8.53867 123.665 7.89 123.292 7.414C122.928 6.92867 122.429 6.686 121.794 6.686C121.159 6.686 120.655 6.92867 120.282 7.414C119.918 7.89 119.736 8.53867 119.736 9.36C119.736 10.1813 119.918 10.8347 120.282 11.32C120.655 11.796 121.159 12.034 121.794 12.034C122.429 12.034 122.928 11.796 123.292 11.32C123.665 10.8347 123.852 10.1813 123.852 9.36ZM129.702 9.038C129.991 9.24333 130.304 9.50467 130.64 9.822C130.976 10.13 131.303 10.466 131.62 10.83C131.947 11.194 132.25 11.5673 132.53 11.95C132.81 12.3233 133.048 12.6733 133.244 13H131.704C131.499 12.6827 131.256 12.3607 130.976 12.034C130.705 11.698 130.421 11.376 130.122 11.068C129.823 10.76 129.52 10.4753 129.212 10.214C128.904 9.95267 128.615 9.73333 128.344 9.556V13H127.042V5.72H128.344V8.842C128.568 8.62733 128.825 8.38 129.114 8.1C129.403 7.81067 129.693 7.52133 129.982 7.232C130.281 6.93333 130.556 6.65333 130.808 6.392C131.06 6.12133 131.265 5.89733 131.424 5.72H132.936C132.731 5.944 132.488 6.20067 132.208 6.49C131.937 6.77 131.653 7.05933 131.354 7.358C131.065 7.65667 130.775 7.95533 130.486 8.254C130.197 8.54333 129.935 8.80467 129.702 9.038Z" fill="black"/>
<g clip-path="url(#clip0_73_295)">
<path d="M10.2068 5.79684C9.9998 5.79684 9.83206 5.96458 9.83206 6.17155V13.2535C9.83206 13.4603 9.9998 13.6282 10.2068 13.6282C10.4137 13.6282 10.5815 13.4603 10.5815 13.2535V6.17155C10.5815 5.96458 10.4137 5.79684 10.2068 5.79684Z" fill="black"/>
<path d="M5.78509 5.79684C5.57813 5.79684 5.41039 5.96458 5.41039 6.17155V13.2535C5.41039 13.4603 5.57813 13.6282 5.78509 13.6282C5.99206 13.6282 6.1598 13.4603 6.1598 13.2535V6.17155C6.1598 5.96458 5.99206 5.79684 5.78509 5.79684Z" fill="black"/>
<path d="M2.56224 4.76329V13.9953C2.56224 14.5409 2.76233 15.0534 3.11186 15.421C3.45978 15.7897 3.94397 15.9991 4.4507 15.9999H11.5403C12.0471 15.9991 12.5313 15.7897 12.8791 15.421C13.2286 15.0534 13.4287 14.5409 13.4287 13.9953V4.76329C14.1235 4.57887 14.5738 3.90761 14.4808 3.19465C14.3877 2.48183 13.7804 1.94861 13.0615 1.94846H11.143V1.48008C11.1452 1.0862 10.9895 0.707977 10.7106 0.429729C10.4318 0.151627 10.053 -0.00323193 9.65912 -1.18019e-05H6.33184C5.93796 -0.00323193 5.55916 0.151627 5.28033 0.429729C5.00149 0.707977 4.84575 1.0862 4.84795 1.48008V1.94846H2.92948C2.21052 1.94861 1.60323 2.48183 1.51014 3.19465C1.41719 3.90761 1.86743 4.57887 2.56224 4.76329ZM11.5403 15.2505H4.4507C3.81004 15.2505 3.31165 14.7002 3.31165 13.9953V4.79622H12.6793V13.9953C12.6793 14.7002 12.1809 15.2505 11.5403 15.2505ZM5.59736 1.48008C5.59487 1.28497 5.67157 1.09717 5.81004 0.95944C5.94836 0.821707 6.13659 0.746034 6.33184 0.7494H9.65912C9.85437 0.746034 10.0426 0.821707 10.1809 0.95944C10.3194 1.09703 10.3961 1.28497 10.3936 1.48008V1.94846H5.59736V1.48008ZM2.92948 2.69787H13.0615C13.434 2.69787 13.7359 2.99983 13.7359 3.37234C13.7359 3.74485 13.434 4.04681 13.0615 4.04681H2.92948C2.55697 4.04681 2.25501 3.74485 2.25501 3.37234C2.25501 2.99983 2.55697 2.69787 2.92948 2.69787Z" fill="black"/>
<path d="M7.9963 5.79684C7.78934 5.79684 7.6216 5.96458 7.6216 6.17155V13.2535C7.6216 13.4603 7.78934 13.6282 7.9963 13.6282C8.20327 13.6282 8.371 13.4603 8.371 13.2535V6.17155C8.371 5.96458 8.20327 5.79684 7.9963 5.79684Z" fill="black"/>
</g>
<defs>
<clipPath id="clip0_73_295">
<rect width="16" height="16" fill="white"/>
</clipPath>
</defs>
</svg>
