<svg width="375" height="110" viewBox="0 0 375 110" fill="none" xmlns="http://www.w3.org/2000/svg">
<rect width="375" height="110" fill="#F5F5F5"/>
<g clip-path="url(#clip0_902_281)">
<path d="M276.767 61.5137H267.23C265.707 61.5137 264.469 62.7522 264.469 64.2745V73.812C264.469 75.3343 265.707 76.5732 267.23 76.5732H276.767C278.289 76.5732 279.528 75.3347 279.528 73.812V64.2745C279.528 62.7522 278.29 61.5137 276.767 61.5137ZM271.998 74.0009C269.265 74.0009 267.041 71.777 267.041 69.0433C267.041 66.3099 269.265 64.0859 271.998 64.0859C274.732 64.0859 276.956 66.3099 276.956 69.0433C276.956 71.7766 274.732 74.0009 271.998 74.0009ZM277.115 65.1109C276.468 65.1109 275.942 64.5847 275.942 63.938C275.942 63.2913 276.468 62.765 277.115 62.765C277.762 62.765 278.288 63.2913 278.288 63.938C278.288 64.5847 277.762 65.1109 277.115 65.1109Z" fill="#6A453B"/>
<path d="M272 66.1807C270.422 66.1807 269.137 67.4648 269.137 69.0428C269.137 70.6214 270.422 71.9059 272 71.9059C273.578 71.9059 274.862 70.6214 274.862 69.0428C274.862 67.4652 273.578 66.1807 272 66.1807Z" fill="#6A453B"/>
<path d="M272 53C263.164 53 256 60.1638 256 69C256 77.8362 263.164 85 272 85C280.836 85 288 77.8362 288 69C288 60.1638 280.836 53 272 53ZM281.624 73.8119C281.624 76.4896 279.447 78.6676 276.769 78.6676H267.231C264.554 78.6676 262.376 76.4896 262.376 73.8119V64.2744C262.376 61.597 264.554 59.4187 267.231 59.4187H276.769C279.447 59.4187 281.624 61.597 281.624 64.2744V73.8119Z" fill="#6A453B"/>
</g>
<g clip-path="url(#clip1_902_281)">
<path d="M230 53C238.837 53 246 60.164 246 69.0001C246 77.8361 238.837 85 230 85C221.163 85 214 77.836 214 69.0001C214 60.1641 221.163 53 230 53Z" fill="#C4302B"/>
<path d="M229.613 66.0008C230.119 66.0008 230.515 65.8398 230.805 65.6109C231.093 65.3808 231.237 65.0679 231.237 64.6659V62.2398C231.237 61.8828 231.09 61.5878 230.797 61.3608C230.502 61.1338 230.125 61.0209 229.663 61.0209C229.158 61.0209 228.754 61.1279 228.455 61.3428C228.155 61.5588 228.005 61.8468 228.005 62.2118V64.6458C228.005 65.0457 228.151 65.3617 228.443 65.5988C228.735 65.8358 229.126 66.0008 229.613 66.0008ZM229.084 62.3299C229.084 62.2378 229.132 62.1639 229.227 62.1049C229.323 62.0479 229.447 62.0199 229.599 62.0199C229.765 62.0199 229.899 62.0479 230 62.1049C230.102 62.1639 230.152 62.238 230.152 62.3299V64.6359C230.152 64.7499 230.102 64.8399 230.002 64.9049C229.902 64.9689 229.768 65.0019 229.599 65.0019C229.434 65.0019 229.306 64.9709 229.217 64.9059C229.129 64.8428 229.084 64.7529 229.084 64.6359V62.3299ZM232.961 65.9978C233.139 65.9978 233.32 65.8958 233.508 65.7939C233.698 65.6898 233.879 65.5378 234.053 65.3399V65.8789H234.998V61.0138H234.053V64.7068C233.965 64.8118 233.867 64.8988 233.762 64.9678C233.655 65.0358 233.567 65.0709 233.498 65.0709C233.409 65.0709 233.344 65.0458 233.306 64.9929C233.266 64.9419 233.244 64.8589 233.244 64.7448V61.0148H232.301V65.0799C232.301 65.3699 232.358 65.5869 232.467 65.7309C232.578 65.8758 232.742 65.9978 232.961 65.9978ZM235.709 68.0089H224.289C222.473 68.0089 221.002 69.4239 221.002 71.1669V73.837C221.002 75.581 222.473 76.996 224.289 76.996H235.709C237.524 76.996 238.996 75.581 238.996 73.837V71.1669C238.996 69.4238 237.524 68.0089 235.709 68.0089ZM225.988 70.7189H224.978V74.9009H224.001V70.7189H222.991V70.0059H225.988C225.988 70.0059 225.988 70.7189 225.988 70.7189ZM229.002 74.9589H227.949V74.5249C227.753 74.685 227.552 74.8079 227.34 74.8899C227.131 74.9759 226.927 75.0169 226.729 75.0169C226.485 75.0169 226.303 74.9579 226.179 74.839C226.057 74.722 225.994 74.546 225.994 74.3109V71.009H227.047V74.038C227.047 74.132 227.069 74.198 227.111 74.24C227.157 74.2829 227.23 74.3019 227.328 74.3019C227.404 74.3019 227.504 74.2749 227.622 74.2189C227.741 74.1638 227.85 74.0939 227.949 74.0069V71.0079H229.002C229.002 71.0079 229.002 74.9589 229.002 74.9589ZM232.988 74.2069C232.988 74.4659 232.906 74.6629 232.743 74.8019C232.582 74.9409 232.344 75.0089 232.037 75.0089C231.832 75.0089 231.65 74.9829 231.492 74.9299C231.333 74.877 231.183 74.7949 231.047 74.6819V74.9619H229.996V70.0059H231.047V71.6029C231.189 71.493 231.338 71.407 231.493 71.349C231.652 71.29 231.812 71.262 231.973 71.262C232.302 71.262 232.553 71.339 232.726 71.494C232.901 71.6499 232.988 71.879 232.988 72.178C232.988 72.1778 232.988 74.2069 232.988 74.2069ZM236.994 73.0919H235.054V73.8059C235.054 74.0049 235.086 74.1429 235.153 74.2209C235.221 74.2979 235.336 74.3359 235.497 74.3359C235.667 74.3359 235.783 74.3029 235.851 74.2379C235.917 74.1719 235.953 74.0288 235.953 73.8049V73.6329H236.996V73.8268C236.996 74.2148 236.871 74.5069 236.613 74.7038C236.359 74.8998 235.979 74.9978 235.474 74.9978C235.019 74.9978 234.661 74.8938 234.4 74.6858C234.14 74.4799 234.008 74.1919 234.008 73.8278V72.1258C234.008 71.7988 234.152 71.5288 234.44 71.3218C234.727 71.1159 235.095 71.0128 235.55 71.0128C236.014 71.0128 236.371 71.1088 236.621 71.2999C236.87 71.4909 236.994 71.7668 236.994 72.1249C236.994 72.1249 236.994 73.0919 236.994 73.0919ZM225.422 66.0119H226.615V63.1049L228.004 59.0049H226.791L226.053 61.8069H225.977L225.203 59.0049H224L225.422 63.2359C225.422 63.2359 225.422 66.0119 225.422 66.0119ZM231.482 71.8418L231.261 71.8779L231.046 71.9889V74.2669C231.13 74.3259 231.213 74.3709 231.293 74.3958L231.544 74.4348C231.672 74.4348 231.765 74.4098 231.825 74.3568C231.884 74.3059 231.915 74.2218 231.915 74.1068V72.2178C231.915 72.0928 231.88 71.9998 231.806 71.9368C231.73 71.8739 231.623 71.8418 231.482 71.8418Z" fill="white"/>
<path d="M235.554 71.6758C235.392 71.6758 235.277 71.7098 235.206 71.7798C235.136 71.8468 235.102 71.9608 235.102 72.1198V72.5018H235.999V72.1198C235.999 71.9608 235.962 71.8478 235.892 71.7798C235.822 71.7098 235.708 71.6758 235.554 71.6758Z" fill="white"/>
</g>
<g clip-path="url(#clip2_902_281)">
<path d="M188 85C196.837 85 204 77.8366 204 69C204 60.1634 196.837 53 188 53C179.163 53 172 60.1634 172 69C172 77.8366 179.163 85 188 85Z" fill="#4D76A1"/>
<path fill-rule="evenodd" clip-rule="evenodd" d="M187.396 76.0173H188.652C188.652 76.0173 189.031 75.9757 189.225 75.7669C189.403 75.5752 189.398 75.2153 189.398 75.2153C189.398 75.2153 189.373 73.5302 190.155 73.2821C190.926 73.0377 191.916 74.9107 192.965 75.6308C193.759 76.1759 194.362 76.0564 194.362 76.0564L197.167 76.0173C197.167 76.0173 198.635 75.9269 197.939 74.7729C197.882 74.6785 197.534 73.9193 195.853 72.3591C194.094 70.7263 194.329 70.9904 196.449 68.1659C197.739 66.4458 198.255 65.3956 198.094 64.9458C197.94 64.5174 196.991 64.6307 196.991 64.6307L193.832 64.6503C193.832 64.6503 193.598 64.6184 193.424 64.7222C193.255 64.824 193.145 65.0613 193.145 65.0613C193.145 65.0613 192.645 66.3924 191.978 67.5244C190.572 69.9131 190.009 70.0392 189.779 69.8909C189.245 69.5452 189.378 68.5022 189.378 67.7612C189.378 65.4464 189.729 64.4812 188.694 64.2314C188.351 64.1484 188.098 64.0936 187.22 64.0848C186.093 64.0731 185.139 64.0882 184.599 64.3529C184.239 64.5288 183.962 64.921 184.131 64.9435C184.34 64.9715 184.813 65.071 185.063 65.4124C185.387 65.8528 185.376 66.8419 185.376 66.8419C185.376 66.8419 185.562 69.5669 184.941 69.9054C184.516 70.1376 183.931 69.6636 182.677 67.4965C182.035 66.3864 181.55 65.1594 181.55 65.1594C181.55 65.1594 181.456 64.9301 181.289 64.8075C181.087 64.6589 180.804 64.6115 180.804 64.6115L177.802 64.6312C177.802 64.6312 177.351 64.6438 177.186 64.8397C177.039 65.014 177.174 65.3745 177.174 65.3745C177.174 65.3745 179.524 70.8729 182.185 73.6437C184.625 76.1842 187.396 76.0173 187.396 76.0173Z" fill="white"/>
</g>
<g clip-path="url(#clip3_902_281)">
<path d="M146 84.9997C154.836 84.9997 162 77.8363 162 68.9999C162 60.1634 154.836 53 146 53C137.163 53 130 60.1634 130 68.9999C130 77.8363 137.163 84.9997 146 84.9997Z" fill="#55ACEE"/>
<path d="M155.801 64.4985C155.115 64.8025 154.378 65.0082 153.604 65.1C154.394 64.6268 155 63.8782 155.286 62.9846C154.547 63.423 153.728 63.741 152.858 63.9124C152.16 63.1694 151.166 62.7051 150.065 62.7051C147.954 62.7051 146.241 64.4178 146.241 66.5295C146.241 66.8293 146.275 67.121 146.341 67.4011C143.162 67.2417 140.344 65.7192 138.458 63.4047C138.128 63.9694 137.94 64.6268 137.94 65.3276C137.94 66.6541 138.615 67.8252 139.641 68.5109C139.014 68.4912 138.424 68.3192 137.909 68.032C137.909 68.0483 137.909 68.0645 137.909 68.0805C137.909 69.9335 139.227 71.4791 140.977 71.8302C140.656 71.918 140.317 71.9645 139.969 71.9645C139.722 71.9645 139.483 71.9408 139.25 71.8963C139.736 73.4154 141.148 74.5212 142.822 74.5522C141.513 75.5782 139.864 76.1894 138.072 76.1894C137.764 76.1894 137.459 76.1714 137.16 76.1357C138.852 77.2213 140.863 77.8541 143.022 77.8541C150.057 77.8541 153.904 72.0267 153.904 66.9724C153.904 66.8067 153.9 66.6416 153.892 66.4779C154.64 65.9388 155.289 65.2654 155.801 64.4985Z" fill="#F1F2F2"/>
</g>
<g clip-path="url(#clip4_902_281)">
<path d="M104 85C112.837 85 120 77.8366 120 69C120 60.1634 112.837 53 104 53C95.1634 53 88 60.1634 88 69C88 77.8366 95.1634 85 104 85Z" fill="#3B5998"/>
<path d="M108.023 69.6262H105.168V80.0856H100.842V69.6262H98.7852V65.9504H100.842V63.5717C100.842 61.8707 101.65 59.207 105.206 59.207L108.411 59.2204V62.7885H106.086C105.704 62.7885 105.168 62.979 105.168 63.7904V65.9538H108.401L108.023 69.6262Z" fill="white"/>
</g>
<path d="M117.193 28.836C117.193 29.516 117.081 30.128 116.857 30.672C116.633 31.208 116.333 31.664 115.957 32.04C115.581 32.408 115.145 32.692 114.649 32.892C114.153 33.084 113.633 33.18 113.089 33.18C112.545 33.18 112.025 33.084 111.529 32.892C111.033 32.692 110.597 32.408 110.221 32.04C109.845 31.664 109.545 31.208 109.321 30.672C109.097 30.128 108.985 29.516 108.985 28.836C108.985 28.156 109.097 27.548 109.321 27.012C109.545 26.468 109.845 26.012 110.221 25.644C110.597 25.268 111.033 24.984 111.529 24.792C112.025 24.592 112.545 24.492 113.089 24.492C113.633 24.492 114.153 24.592 114.649 24.792C115.145 24.984 115.581 25.268 115.957 25.644C116.333 26.012 116.633 26.468 116.857 27.012C117.081 27.548 117.193 28.156 117.193 28.836ZM116.317 28.836C116.317 28.308 116.237 27.828 116.077 27.396C115.917 26.956 115.693 26.58 115.405 26.268C115.125 25.956 114.785 25.716 114.385 25.548C113.993 25.38 113.561 25.296 113.089 25.296C112.617 25.296 112.181 25.38 111.781 25.548C111.389 25.716 111.049 25.956 110.761 26.268C110.481 26.58 110.261 26.956 110.101 27.396C109.941 27.828 109.861 28.308 109.861 28.836C109.861 29.364 109.941 29.848 110.101 30.288C110.261 30.72 110.481 31.092 110.761 31.404C111.049 31.716 111.389 31.956 111.781 32.124C112.181 32.292 112.617 32.376 113.089 32.376C113.561 32.376 113.993 32.292 114.385 32.124C114.785 31.956 115.125 31.716 115.405 31.404C115.693 31.092 115.917 30.72 116.077 30.288C116.237 29.848 116.317 29.364 116.317 28.836ZM113.233 31.32C112.889 31.32 112.577 31.264 112.297 31.152C112.017 31.04 111.773 30.88 111.565 30.672C111.365 30.464 111.209 30.208 111.097 29.904C110.985 29.592 110.929 29.236 110.929 28.836C110.929 28.444 110.989 28.096 111.109 27.792C111.237 27.488 111.405 27.232 111.613 27.024C111.821 26.808 112.065 26.644 112.345 26.532C112.625 26.42 112.921 26.364 113.233 26.364C113.441 26.364 113.629 26.38 113.797 26.412C113.973 26.444 114.125 26.484 114.253 26.532C114.381 26.572 114.485 26.616 114.565 26.664C114.653 26.704 114.713 26.736 114.745 26.76L114.469 27.48C114.373 27.424 114.217 27.36 114.001 27.288C113.793 27.208 113.549 27.168 113.269 27.168C112.861 27.168 112.521 27.312 112.249 27.6C111.977 27.88 111.841 28.292 111.841 28.836C111.841 29.332 111.965 29.74 112.213 30.06C112.461 30.372 112.825 30.528 113.305 30.528C113.617 30.528 113.873 30.496 114.073 30.432C114.281 30.36 114.441 30.296 114.553 30.24L114.781 30.96C114.741 30.984 114.673 31.02 114.577 31.068C114.489 31.108 114.377 31.148 114.241 31.188C114.105 31.22 113.949 31.252 113.773 31.284C113.605 31.308 113.425 31.32 113.233 31.32ZM126.36 26.808C126.36 27.096 126.3 27.376 126.18 27.648C126.068 27.912 125.916 28.176 125.724 28.44C125.532 28.696 125.316 28.952 125.076 29.208C124.836 29.456 124.596 29.7 124.356 29.94C124.22 30.076 124.06 30.236 123.876 30.42C123.7 30.604 123.532 30.796 123.372 30.996C123.212 31.196 123.076 31.388 122.964 31.572C122.86 31.756 122.808 31.916 122.808 32.052H126.636V33H121.596C121.588 32.952 121.584 32.904 121.584 32.856C121.584 32.808 121.584 32.764 121.584 32.724C121.584 32.348 121.644 32 121.764 31.68C121.892 31.352 122.056 31.044 122.256 30.756C122.456 30.468 122.68 30.196 122.928 29.94C123.176 29.684 123.42 29.436 123.66 29.196C123.86 29.004 124.048 28.816 124.224 28.632C124.408 28.44 124.568 28.252 124.704 28.068C124.848 27.876 124.96 27.68 125.04 27.48C125.128 27.28 125.172 27.068 125.172 26.844C125.172 26.604 125.132 26.4 125.052 26.232C124.98 26.064 124.88 25.924 124.752 25.812C124.624 25.7 124.472 25.62 124.296 25.572C124.128 25.516 123.948 25.488 123.756 25.488C123.524 25.488 123.312 25.52 123.12 25.584C122.928 25.648 122.756 25.724 122.604 25.812C122.452 25.892 122.324 25.98 122.22 26.076C122.116 26.164 122.036 26.232 121.98 26.28L121.428 25.488C121.5 25.408 121.608 25.312 121.752 25.2C121.896 25.08 122.068 24.968 122.268 24.864C122.468 24.76 122.692 24.672 122.94 24.6C123.188 24.528 123.456 24.492 123.744 24.492C124.616 24.492 125.268 24.696 125.7 25.104C126.14 25.504 126.36 26.072 126.36 26.808ZM128.129 28.836C128.129 27.444 128.373 26.372 128.861 25.62C129.357 24.868 130.041 24.492 130.913 24.492C131.785 24.492 132.465 24.868 132.953 25.62C133.449 26.372 133.697 27.444 133.697 28.836C133.697 30.228 133.449 31.3 132.953 32.052C132.465 32.804 131.785 33.18 130.913 33.18C130.041 33.18 129.357 32.804 128.861 32.052C128.373 31.3 128.129 30.228 128.129 28.836ZM132.521 28.836C132.521 28.38 132.493 27.948 132.437 27.54C132.389 27.132 132.301 26.776 132.173 26.472C132.053 26.168 131.889 25.928 131.681 25.752C131.473 25.568 131.217 25.476 130.913 25.476C130.609 25.476 130.353 25.568 130.145 25.752C129.937 25.928 129.769 26.168 129.641 26.472C129.521 26.776 129.433 27.132 129.377 27.54C129.329 27.948 129.305 28.38 129.305 28.836C129.305 29.292 129.329 29.724 129.377 30.132C129.433 30.54 129.521 30.896 129.641 31.2C129.769 31.504 129.937 31.748 130.145 31.932C130.353 32.108 130.609 32.196 130.913 32.196C131.217 32.196 131.473 32.108 131.681 31.932C131.889 31.748 132.053 31.504 132.173 31.2C132.301 30.896 132.389 30.54 132.437 30.132C132.493 29.724 132.521 29.292 132.521 28.836ZM135.419 26.4C135.875 26.224 136.319 26 136.751 25.728C137.183 25.448 137.579 25.1 137.939 24.684H138.731V33H137.615V26.232C137.519 26.32 137.399 26.412 137.255 26.508C137.119 26.604 136.967 26.696 136.799 26.784C136.639 26.872 136.467 26.956 136.283 27.036C136.107 27.116 135.935 27.184 135.767 27.24L135.419 26.4ZM143.464 27.888C144.672 27.936 145.556 28.2 146.116 28.68C146.684 29.16 146.968 29.812 146.968 30.636C146.968 31.004 146.904 31.344 146.776 31.656C146.656 31.968 146.468 32.236 146.212 32.46C145.964 32.684 145.648 32.86 145.264 32.988C144.88 33.116 144.424 33.18 143.896 33.18C143.688 33.18 143.476 33.164 143.26 33.132C143.044 33.1 142.844 33.06 142.66 33.012C142.476 32.964 142.312 32.916 142.168 32.868C142.024 32.82 141.92 32.78 141.856 32.748L142.072 31.776C142.208 31.84 142.428 31.924 142.732 32.028C143.044 32.132 143.424 32.184 143.872 32.184C144.232 32.184 144.532 32.144 144.772 32.064C145.02 31.984 145.22 31.876 145.372 31.74C145.524 31.604 145.632 31.448 145.696 31.272C145.768 31.088 145.804 30.896 145.804 30.696C145.804 30.392 145.752 30.124 145.648 29.892C145.544 29.652 145.36 29.452 145.096 29.292C144.832 29.132 144.48 29.012 144.04 28.932C143.6 28.844 143.044 28.8 142.372 28.8C142.42 28.408 142.456 28.04 142.48 27.696C142.512 27.352 142.54 27.016 142.564 26.688C142.588 26.36 142.608 26.036 142.624 25.716C142.64 25.388 142.656 25.044 142.672 24.684H146.68V25.632H143.644C143.636 25.752 143.624 25.916 143.608 26.124C143.592 26.324 143.576 26.536 143.56 26.76C143.544 26.976 143.528 27.188 143.512 27.396C143.496 27.604 143.48 27.768 143.464 27.888ZM150.603 28.932H156.603V29.88H150.603V28.932ZM164.961 26.808C164.961 27.096 164.901 27.376 164.781 27.648C164.669 27.912 164.517 28.176 164.325 28.44C164.133 28.696 163.917 28.952 163.677 29.208C163.437 29.456 163.197 29.7 162.957 29.94C162.821 30.076 162.661 30.236 162.477 30.42C162.301 30.604 162.133 30.796 161.973 30.996C161.813 31.196 161.677 31.388 161.565 31.572C161.461 31.756 161.409 31.916 161.409 32.052H165.237V33H160.197C160.189 32.952 160.185 32.904 160.185 32.856C160.185 32.808 160.185 32.764 160.185 32.724C160.185 32.348 160.245 32 160.365 31.68C160.493 31.352 160.657 31.044 160.857 30.756C161.057 30.468 161.281 30.196 161.529 29.94C161.777 29.684 162.021 29.436 162.261 29.196C162.461 29.004 162.649 28.816 162.825 28.632C163.009 28.44 163.169 28.252 163.305 28.068C163.449 27.876 163.561 27.68 163.641 27.48C163.729 27.28 163.773 27.068 163.773 26.844C163.773 26.604 163.733 26.4 163.653 26.232C163.581 26.064 163.481 25.924 163.353 25.812C163.225 25.7 163.073 25.62 162.897 25.572C162.729 25.516 162.549 25.488 162.357 25.488C162.125 25.488 161.913 25.52 161.721 25.584C161.529 25.648 161.357 25.724 161.205 25.812C161.053 25.892 160.925 25.98 160.821 26.076C160.717 26.164 160.637 26.232 160.581 26.28L160.029 25.488C160.101 25.408 160.209 25.312 160.353 25.2C160.497 25.08 160.669 24.968 160.869 24.864C161.069 24.76 161.293 24.672 161.541 24.6C161.789 24.528 162.057 24.492 162.345 24.492C163.217 24.492 163.869 24.696 164.301 25.104C164.741 25.504 164.961 26.072 164.961 26.808ZM166.731 28.836C166.731 27.444 166.975 26.372 167.463 25.62C167.959 24.868 168.643 24.492 169.515 24.492C170.387 24.492 171.067 24.868 171.555 25.62C172.051 26.372 172.299 27.444 172.299 28.836C172.299 30.228 172.051 31.3 171.555 32.052C171.067 32.804 170.387 33.18 169.515 33.18C168.643 33.18 167.959 32.804 167.463 32.052C166.975 31.3 166.731 30.228 166.731 28.836ZM171.123 28.836C171.123 28.38 171.095 27.948 171.039 27.54C170.991 27.132 170.903 26.776 170.775 26.472C170.655 26.168 170.491 25.928 170.283 25.752C170.075 25.568 169.819 25.476 169.515 25.476C169.211 25.476 168.955 25.568 168.747 25.752C168.539 25.928 168.371 26.168 168.243 26.472C168.123 26.776 168.035 27.132 167.979 27.54C167.931 27.948 167.907 28.38 167.907 28.836C167.907 29.292 167.931 29.724 167.979 30.132C168.035 30.54 168.123 30.896 168.243 31.2C168.371 31.504 168.539 31.748 168.747 31.932C168.955 32.108 169.211 32.196 169.515 32.196C169.819 32.196 170.075 32.108 170.283 31.932C170.491 31.748 170.655 31.504 170.775 31.2C170.903 30.896 170.991 30.54 171.039 30.132C171.095 29.724 171.123 29.292 171.123 28.836ZM174.02 26.4C174.476 26.224 174.92 26 175.352 25.728C175.784 25.448 176.18 25.1 176.54 24.684H177.332V33H176.216V26.232C176.12 26.32 176 26.412 175.856 26.508C175.72 26.604 175.568 26.696 175.4 26.784C175.24 26.872 175.068 26.956 174.884 27.036C174.708 27.116 174.536 27.184 174.368 27.24L174.02 26.4ZM185.69 28.008C185.69 29.656 185.278 30.904 184.454 31.752C183.638 32.592 182.422 33.016 180.806 33.024L180.77 32.088C181.274 32.088 181.726 32.04 182.126 31.944C182.534 31.848 182.89 31.696 183.194 31.488C183.498 31.272 183.75 30.996 183.95 30.66C184.158 30.324 184.31 29.912 184.406 29.424C184.198 29.52 183.962 29.6 183.698 29.664C183.434 29.72 183.162 29.748 182.882 29.748C182.41 29.748 182.01 29.68 181.682 29.544C181.354 29.4 181.086 29.212 180.878 28.98C180.67 28.74 180.518 28.468 180.422 28.164C180.334 27.852 180.29 27.528 180.29 27.192C180.29 26.896 180.342 26.588 180.446 26.268C180.55 25.948 180.706 25.656 180.914 25.392C181.13 25.128 181.402 24.912 181.73 24.744C182.058 24.576 182.446 24.492 182.894 24.492C183.35 24.492 183.75 24.572 184.094 24.732C184.446 24.892 184.738 25.124 184.97 25.428C185.21 25.732 185.39 26.104 185.51 26.544C185.63 26.976 185.69 27.464 185.69 28.008ZM183.002 28.836C183.282 28.836 183.546 28.812 183.794 28.764C184.042 28.708 184.282 28.628 184.514 28.524C184.522 28.436 184.526 28.352 184.526 28.272C184.526 28.184 184.526 28.096 184.526 28.008C184.526 27.664 184.502 27.336 184.454 27.024C184.406 26.704 184.318 26.428 184.19 26.196C184.07 25.956 183.906 25.768 183.698 25.632C183.49 25.488 183.226 25.416 182.906 25.416C182.642 25.416 182.418 25.472 182.234 25.584C182.05 25.696 181.898 25.84 181.778 26.016C181.658 26.184 181.57 26.372 181.514 26.58C181.466 26.78 181.442 26.976 181.442 27.168C181.442 27.712 181.57 28.128 181.826 28.416C182.09 28.696 182.482 28.836 183.002 28.836ZM190.261 33V24.684H195.277V25.68H191.425V28.188H194.845V29.172H191.425V33H190.261ZM201.978 29.88C201.978 30.376 201.906 30.824 201.762 31.224C201.618 31.624 201.414 31.968 201.15 32.256C200.894 32.544 200.586 32.768 200.226 32.928C199.866 33.08 199.474 33.156 199.05 33.156C198.626 33.156 198.234 33.08 197.874 32.928C197.514 32.768 197.202 32.544 196.938 32.256C196.682 31.968 196.482 31.624 196.338 31.224C196.194 30.824 196.122 30.376 196.122 29.88C196.122 29.392 196.194 28.948 196.338 28.548C196.482 28.14 196.682 27.792 196.938 27.504C197.202 27.216 197.514 26.996 197.874 26.844C198.234 26.684 198.626 26.604 199.05 26.604C199.474 26.604 199.866 26.684 200.226 26.844C200.586 26.996 200.894 27.216 201.15 27.504C201.414 27.792 201.618 28.14 201.762 28.548C201.906 28.948 201.978 29.392 201.978 29.88ZM200.814 29.88C200.814 29.176 200.654 28.62 200.334 28.212C200.022 27.796 199.594 27.588 199.05 27.588C198.506 27.588 198.074 27.796 197.754 28.212C197.442 28.62 197.286 29.176 197.286 29.88C197.286 30.584 197.442 31.144 197.754 31.56C198.074 31.968 198.506 32.172 199.05 32.172C199.594 32.172 200.022 31.968 200.334 31.56C200.654 31.144 200.814 30.584 200.814 29.88ZM204.592 26.76H206.956V27.696H204.592V30.576C204.592 30.888 204.616 31.148 204.664 31.356C204.712 31.556 204.784 31.716 204.88 31.836C204.976 31.948 205.096 32.028 205.24 32.076C205.384 32.124 205.552 32.148 205.744 32.148C206.08 32.148 206.348 32.112 206.548 32.04C206.756 31.96 206.9 31.904 206.98 31.872L207.196 32.796C207.084 32.852 206.888 32.92 206.608 33C206.328 33.088 206.008 33.132 205.648 33.132C205.224 33.132 204.872 33.08 204.592 32.976C204.32 32.864 204.1 32.7 203.932 32.484C203.764 32.268 203.644 32.004 203.572 31.692C203.508 31.372 203.476 31.004 203.476 30.588V25.02L204.592 24.828V26.76ZM213.72 29.88C213.72 30.376 213.648 30.824 213.504 31.224C213.36 31.624 213.156 31.968 212.892 32.256C212.636 32.544 212.328 32.768 211.968 32.928C211.608 33.08 211.216 33.156 210.792 33.156C210.368 33.156 209.976 33.08 209.616 32.928C209.256 32.768 208.944 32.544 208.68 32.256C208.424 31.968 208.224 31.624 208.08 31.224C207.936 30.824 207.864 30.376 207.864 29.88C207.864 29.392 207.936 28.948 208.08 28.548C208.224 28.14 208.424 27.792 208.68 27.504C208.944 27.216 209.256 26.996 209.616 26.844C209.976 26.684 210.368 26.604 210.792 26.604C211.216 26.604 211.608 26.684 211.968 26.844C212.328 26.996 212.636 27.216 212.892 27.504C213.156 27.792 213.36 28.14 213.504 28.548C213.648 28.948 213.72 29.392 213.72 29.88ZM212.556 29.88C212.556 29.176 212.396 28.62 212.076 28.212C211.764 27.796 211.336 27.588 210.792 27.588C210.248 27.588 209.816 27.796 209.496 28.212C209.184 28.62 209.028 29.176 209.028 29.88C209.028 30.584 209.184 31.144 209.496 31.56C209.816 31.968 210.248 32.172 210.792 32.172C211.336 32.172 211.764 31.968 212.076 31.56C212.396 31.144 212.556 30.584 212.556 29.88ZM219.622 29.892C219.622 29.164 219.442 28.604 219.082 28.212C218.722 27.82 218.242 27.624 217.642 27.624C217.306 27.624 217.042 27.636 216.85 27.66C216.666 27.684 216.518 27.712 216.406 27.744V31.68C216.542 31.792 216.738 31.9 216.994 32.004C217.25 32.108 217.53 32.16 217.834 32.16C218.154 32.16 218.426 32.104 218.65 31.992C218.882 31.872 219.07 31.712 219.214 31.512C219.358 31.304 219.462 31.064 219.526 30.792C219.59 30.512 219.622 30.212 219.622 29.892ZM220.786 29.892C220.786 30.364 220.722 30.8 220.594 31.2C220.474 31.6 220.294 31.944 220.054 32.232C219.814 32.52 219.518 32.744 219.166 32.904C218.822 33.064 218.426 33.144 217.978 33.144C217.618 33.144 217.298 33.096 217.018 33C216.746 32.904 216.542 32.812 216.406 32.724V35.22H215.29V26.952C215.554 26.888 215.882 26.82 216.274 26.748C216.674 26.668 217.134 26.628 217.654 26.628C218.134 26.628 218.566 26.704 218.95 26.856C219.334 27.008 219.662 27.224 219.934 27.504C220.206 27.784 220.414 28.128 220.558 28.536C220.71 28.936 220.786 29.388 220.786 29.892ZM224.66 26.628C224.756 26.628 224.864 26.636 224.984 26.652C225.112 26.66 225.236 26.676 225.356 26.7C225.476 26.716 225.584 26.736 225.68 26.76C225.784 26.776 225.86 26.792 225.908 26.808L225.716 27.78C225.628 27.748 225.48 27.712 225.272 27.672C225.072 27.624 224.812 27.6 224.492 27.6C224.284 27.6 224.076 27.624 223.868 27.672C223.668 27.712 223.536 27.74 223.472 27.756V33H222.356V27.024C222.62 26.928 222.948 26.84 223.34 26.76C223.732 26.672 224.172 26.628 224.66 26.628ZM232.493 29.88C232.493 30.376 232.421 30.824 232.277 31.224C232.133 31.624 231.929 31.968 231.665 32.256C231.409 32.544 231.101 32.768 230.741 32.928C230.381 33.08 229.989 33.156 229.565 33.156C229.141 33.156 228.749 33.08 228.389 32.928C228.029 32.768 227.717 32.544 227.453 32.256C227.197 31.968 226.997 31.624 226.853 31.224C226.709 30.824 226.637 30.376 226.637 29.88C226.637 29.392 226.709 28.948 226.853 28.548C226.997 28.14 227.197 27.792 227.453 27.504C227.717 27.216 228.029 26.996 228.389 26.844C228.749 26.684 229.141 26.604 229.565 26.604C229.989 26.604 230.381 26.684 230.741 26.844C231.101 26.996 231.409 27.216 231.665 27.504C231.929 27.792 232.133 28.14 232.277 28.548C232.421 28.948 232.493 29.392 232.493 29.88ZM231.329 29.88C231.329 29.176 231.169 28.62 230.849 28.212C230.537 27.796 230.109 27.588 229.565 27.588C229.021 27.588 228.589 27.796 228.269 28.212C227.957 28.62 227.801 29.176 227.801 29.88C227.801 30.584 227.957 31.144 228.269 31.56C228.589 31.968 229.021 32.172 229.565 32.172C230.109 32.172 230.537 31.968 230.849 31.56C231.169 31.144 231.329 30.584 231.329 29.88ZM236.32 29.568C236.56 29.752 236.812 29.98 237.076 30.252C237.348 30.524 237.612 30.82 237.868 31.14C238.132 31.452 238.38 31.772 238.612 32.1C238.844 32.42 239.04 32.72 239.2 33H237.892C237.724 32.72 237.528 32.436 237.304 32.148C237.088 31.852 236.86 31.572 236.62 31.308C236.38 31.036 236.136 30.788 235.888 30.564C235.64 30.34 235.404 30.152 235.18 30V33H234.064V23.88L235.18 23.688V29.376C235.372 29.184 235.584 28.972 235.816 28.74C236.048 28.508 236.276 28.272 236.5 28.032C236.724 27.792 236.936 27.564 237.136 27.348C237.336 27.124 237.508 26.928 237.652 26.76H238.96C238.776 26.96 238.576 27.18 238.36 27.42C238.144 27.66 237.92 27.904 237.688 28.152C237.456 28.392 237.22 28.636 236.98 28.884C236.748 29.124 236.528 29.352 236.32 29.568ZM242.445 32.196C242.709 32.196 242.941 32.192 243.141 32.184C243.349 32.168 243.521 32.144 243.657 32.112V30.252C243.577 30.212 243.445 30.18 243.261 30.156C243.085 30.124 242.869 30.108 242.613 30.108C242.445 30.108 242.265 30.12 242.073 30.144C241.889 30.168 241.717 30.22 241.557 30.3C241.405 30.372 241.277 30.476 241.173 30.612C241.069 30.74 241.017 30.912 241.017 31.128C241.017 31.528 241.145 31.808 241.401 31.968C241.657 32.12 242.005 32.196 242.445 32.196ZM242.349 26.604C242.797 26.604 243.173 26.664 243.477 26.784C243.789 26.896 244.037 27.06 244.221 27.276C244.413 27.484 244.549 27.736 244.629 28.032C244.709 28.32 244.749 28.64 244.749 28.992V32.892C244.653 32.908 244.517 32.932 244.341 32.964C244.173 32.988 243.981 33.012 243.765 33.036C243.549 33.06 243.313 33.08 243.057 33.096C242.809 33.12 242.561 33.132 242.313 33.132C241.961 33.132 241.637 33.096 241.341 33.024C241.045 32.952 240.789 32.84 240.573 32.688C240.357 32.528 240.189 32.32 240.069 32.064C239.949 31.808 239.889 31.5 239.889 31.14C239.889 30.796 239.957 30.5 240.093 30.252C240.237 30.004 240.429 29.804 240.669 29.652C240.909 29.5 241.189 29.388 241.509 29.316C241.829 29.244 242.165 29.208 242.517 29.208C242.629 29.208 242.745 29.216 242.865 29.232C242.985 29.24 243.097 29.256 243.201 29.28C243.313 29.296 243.409 29.312 243.489 29.328C243.569 29.344 243.625 29.356 243.657 29.364V29.052C243.657 28.868 243.637 28.688 243.597 28.512C243.557 28.328 243.485 28.168 243.381 28.032C243.277 27.888 243.133 27.776 242.949 27.696C242.773 27.608 242.541 27.564 242.253 27.564C241.885 27.564 241.561 27.592 241.281 27.648C241.009 27.696 240.805 27.748 240.669 27.804L240.537 26.88C240.681 26.816 240.921 26.756 241.257 26.7C241.593 26.636 241.957 26.604 242.349 26.604ZM247.647 26.76H250.011V27.696H247.647V30.576C247.647 30.888 247.671 31.148 247.719 31.356C247.767 31.556 247.839 31.716 247.935 31.836C248.031 31.948 248.151 32.028 248.295 32.076C248.439 32.124 248.607 32.148 248.799 32.148C249.135 32.148 249.403 32.112 249.603 32.04C249.811 31.96 249.955 31.904 250.035 31.872L250.251 32.796C250.139 32.852 249.943 32.92 249.663 33C249.383 33.088 249.063 33.132 248.703 33.132C248.279 33.132 247.927 33.08 247.647 32.976C247.375 32.864 247.155 32.7 246.987 32.484C246.819 32.268 246.699 32.004 246.627 31.692C246.563 31.372 246.531 31.004 246.531 30.588V25.02L247.647 24.828V26.76ZM258.852 26.808C258.852 27.096 258.792 27.376 258.672 27.648C258.56 27.912 258.408 28.176 258.216 28.44C258.024 28.696 257.808 28.952 257.568 29.208C257.328 29.456 257.088 29.7 256.848 29.94C256.712 30.076 256.552 30.236 256.368 30.42C256.192 30.604 256.024 30.796 255.864 30.996C255.704 31.196 255.568 31.388 255.456 31.572C255.352 31.756 255.3 31.916 255.3 32.052H259.128V33H254.088C254.08 32.952 254.076 32.904 254.076 32.856C254.076 32.808 254.076 32.764 254.076 32.724C254.076 32.348 254.136 32 254.256 31.68C254.384 31.352 254.548 31.044 254.748 30.756C254.948 30.468 255.172 30.196 255.42 29.94C255.668 29.684 255.912 29.436 256.152 29.196C256.352 29.004 256.54 28.816 256.716 28.632C256.9 28.44 257.06 28.252 257.196 28.068C257.34 27.876 257.452 27.68 257.532 27.48C257.62 27.28 257.664 27.068 257.664 26.844C257.664 26.604 257.624 26.4 257.544 26.232C257.472 26.064 257.372 25.924 257.244 25.812C257.116 25.7 256.964 25.62 256.788 25.572C256.62 25.516 256.44 25.488 256.248 25.488C256.016 25.488 255.804 25.52 255.612 25.584C255.42 25.648 255.248 25.724 255.096 25.812C254.944 25.892 254.816 25.98 254.712 26.076C254.608 26.164 254.528 26.232 254.472 26.28L253.92 25.488C253.992 25.408 254.1 25.312 254.244 25.2C254.388 25.08 254.56 24.968 254.76 24.864C254.96 24.76 255.184 24.672 255.432 24.6C255.68 24.528 255.948 24.492 256.236 24.492C257.108 24.492 257.76 24.696 258.192 25.104C258.632 25.504 258.852 26.072 258.852 26.808ZM260.501 30.12C260.653 29.768 260.861 29.36 261.125 28.896C261.389 28.424 261.685 27.94 262.013 27.444C262.349 26.948 262.705 26.46 263.081 25.98C263.465 25.5 263.849 25.068 264.233 24.684H265.301V29.964H266.285V30.876H265.301V33H264.221V30.876H260.501V30.12ZM264.221 26.004C263.981 26.26 263.737 26.548 263.489 26.868C263.249 27.18 263.013 27.508 262.781 27.852C262.549 28.196 262.329 28.548 262.121 28.908C261.921 29.268 261.741 29.62 261.581 29.964H264.221V26.004Z" fill="#75758A"/>
<defs>
<clipPath id="clip0_902_281">
<rect width="32" height="32" fill="white" transform="translate(256 53)"/>
</clipPath>
<clipPath id="clip1_902_281">
<rect width="32" height="32" fill="white" transform="translate(214 53)"/>
</clipPath>
<clipPath id="clip2_902_281">
<rect width="32" height="32" fill="white" transform="translate(172 53)"/>
</clipPath>
<clipPath id="clip3_902_281">
<rect width="32" height="32" fill="white" transform="translate(130 53)"/>
</clipPath>
<clipPath id="clip4_902_281">
<rect width="32" height="32" fill="white" transform="translate(88 53)"/>
</clipPath>
</defs>
</svg>
