<svg width="179" height="100" viewBox="0 0 179 100" fill="none" xmlns="http://www.w3.org/2000/svg">
<path d="M10.8 86.88C10.8 86.3 10.67 85.79 10.41 85.35C10.15 84.89 9.7 84.51 9.06 84.21C8.42 83.91 7.56 83.68 6.48 83.52C5.4 83.36 4.04 83.28 2.4 83.28C2.62 81.42 2.8 79.53 2.94 77.61C3.08 75.69 3.19 73.89 3.27 72.21H14.52V75.96H7.02C6.98 76.68 6.93 77.38 6.87 78.06C6.83 78.72 6.78 79.3 6.72 79.8C9.64 80 11.79 80.69 13.17 81.87C14.57 83.03 15.27 84.65 15.27 86.73C15.27 87.69 15.1 88.58 14.76 89.4C14.42 90.22 13.91 90.93 13.23 91.53C12.55 92.13 11.69 92.6 10.65 92.94C9.63 93.28 8.43 93.45 7.05 93.45C6.51 93.45 5.94 93.41 5.34 93.33C4.76 93.27 4.19 93.18 3.63 93.06C3.09 92.96 2.6 92.85 2.16 92.73C1.72 92.61 1.38 92.49 1.14 92.37L1.95 88.68C2.45 88.9 3.11 89.12 3.93 89.34C4.75 89.54 5.73 89.64 6.87 89.64C8.25 89.64 9.25 89.37 9.87 88.83C10.49 88.27 10.8 87.62 10.8 86.88ZM42.0778 72.21V76.2H35.8078V93H31.1278V76.2H24.8578V72.21H42.0778ZM48.3124 82.59C48.3124 83.61 48.4324 84.53 48.6724 85.35C48.9324 86.17 49.2924 86.88 49.7524 87.48C50.2324 88.06 50.8124 88.51 51.4924 88.83C52.1724 89.15 52.9524 89.31 53.8324 89.31C54.6924 89.31 55.4624 89.15 56.1424 88.83C56.8424 88.51 57.4224 88.06 57.8824 87.48C58.3624 86.88 58.7224 86.17 58.9624 85.35C59.2224 84.53 59.3524 83.61 59.3524 82.59C59.3524 81.57 59.2224 80.65 58.9624 79.83C58.7224 78.99 58.3624 78.28 57.8824 77.7C57.4224 77.1 56.8424 76.64 56.1424 76.32C55.4624 76 54.6924 75.84 53.8324 75.84C52.9524 75.84 52.1724 76.01 51.4924 76.35C50.8124 76.67 50.2324 77.13 49.7524 77.73C49.2924 78.31 48.9324 79.02 48.6724 79.86C48.4324 80.68 48.3124 81.59 48.3124 82.59ZM64.1824 82.59C64.1824 84.37 63.9124 85.94 63.3724 87.3C62.8524 88.64 62.1324 89.77 61.2124 90.69C60.2924 91.59 59.1924 92.27 57.9124 92.73C56.6524 93.19 55.2924 93.42 53.8324 93.42C52.4124 93.42 51.0724 93.19 49.8124 92.73C48.5524 92.27 47.4524 91.59 46.5124 90.69C45.5724 89.77 44.8324 88.64 44.2924 87.3C43.7524 85.94 43.4824 84.37 43.4824 82.59C43.4824 80.81 43.7624 79.25 44.3224 77.91C44.8824 76.55 45.6324 75.41 46.5724 74.49C47.5324 73.57 48.6324 72.88 49.8724 72.42C51.1324 71.96 52.4524 71.73 53.8324 71.73C55.2524 71.73 56.5924 71.96 57.8524 72.42C59.1124 72.88 60.2124 73.57 61.1524 74.49C62.0924 75.41 62.8324 76.55 63.3724 77.91C63.9124 79.25 64.1824 80.81 64.1824 82.59ZM75.0136 93.27C73.8736 93.27 72.7336 93.23 71.5936 93.15C70.4736 93.09 69.3036 92.93 68.0836 92.67V72.51C69.0436 72.33 70.0936 72.2 71.2336 72.12C72.3736 72.02 73.4336 71.97 74.4136 71.97C75.7336 71.97 76.9436 72.07 78.0436 72.27C79.1636 72.45 80.1236 72.77 80.9236 73.23C81.7236 73.69 82.3436 74.3 82.7836 75.06C83.2436 75.8 83.4736 76.72 83.4736 77.82C83.4736 79.48 82.6736 80.79 81.0736 81.75C82.3936 82.25 83.2936 82.93 83.7736 83.79C84.2536 84.65 84.4936 85.62 84.4936 86.7C84.4936 88.88 83.6936 90.52 82.0936 91.62C80.5136 92.72 78.1536 93.27 75.0136 93.27ZM72.6436 83.94V89.31C72.9836 89.35 73.3536 89.38 73.7536 89.4C74.1536 89.42 74.5936 89.43 75.0736 89.43C76.4736 89.43 77.6036 89.23 78.4636 88.83C79.3236 88.43 79.7536 87.69 79.7536 86.61C79.7536 85.65 79.3936 84.97 78.6736 84.57C77.9536 84.15 76.9236 83.94 75.5836 83.94H72.6436ZM72.6436 80.37H74.9236C76.3636 80.37 77.3936 80.19 78.0136 79.83C78.6336 79.45 78.9436 78.85 78.9436 78.03C78.9436 77.19 78.6236 76.6 77.9836 76.26C77.3436 75.92 76.4036 75.75 75.1636 75.75C74.7636 75.75 74.3336 75.76 73.8736 75.78C73.4136 75.78 73.0036 75.8 72.6436 75.84V80.37ZM101.867 93C101.647 92.28 101.397 91.54 101.117 90.78C100.857 90.02 100.597 89.26 100.337 88.5H92.2369C91.9769 89.26 91.7069 90.02 91.4269 90.78C91.1669 91.54 90.9269 92.28 90.7069 93H85.8469C86.6269 90.76 87.3669 88.69 88.0669 86.79C88.7669 84.89 89.4469 83.1 90.1069 81.42C90.7869 79.74 91.4469 78.15 92.0869 76.65C92.7469 75.13 93.4269 73.65 94.1269 72.21H98.5969C99.2769 73.65 99.9469 75.13 100.607 76.65C101.267 78.15 101.927 79.74 102.587 81.42C103.267 83.1 103.957 84.89 104.657 86.79C105.357 88.69 106.097 90.76 106.877 93H101.867ZM96.2569 76.92C96.1569 77.22 96.0069 77.63 95.8069 78.15C95.6069 78.67 95.3769 79.27 95.1169 79.95C94.8569 80.63 94.5669 81.38 94.2469 82.2C93.9469 83.02 93.6369 83.88 93.3169 84.78H99.2269C98.9069 83.88 98.5969 83.02 98.2969 82.2C97.9969 81.38 97.7069 80.63 97.4269 79.95C97.1669 79.27 96.9369 78.67 96.7369 78.15C96.5369 77.63 96.3769 77.22 96.2569 76.92ZM115.808 71.97C118.908 71.97 121.288 72.52 122.948 73.62C124.608 74.7 125.438 76.48 125.438 78.96C125.438 81.46 124.598 83.27 122.918 84.39C121.238 85.49 118.838 86.04 115.718 86.04H114.248V93H109.568V72.51C110.588 72.31 111.668 72.17 112.808 72.09C113.948 72.01 114.948 71.97 115.808 71.97ZM116.108 75.96C115.768 75.96 115.428 75.97 115.088 75.99C114.768 76.01 114.488 76.03 114.248 76.05V82.05H115.718C117.338 82.05 118.558 81.83 119.378 81.39C120.198 80.95 120.608 80.13 120.608 78.93C120.608 78.35 120.498 77.87 120.278 77.49C120.078 77.11 119.778 76.81 119.378 76.59C118.998 76.35 118.528 76.19 117.968 76.11C117.408 76.01 116.788 75.96 116.108 75.96ZM132.805 82.59C132.805 83.61 132.925 84.53 133.165 85.35C133.425 86.17 133.785 86.88 134.245 87.48C134.725 88.06 135.305 88.51 135.985 88.83C136.665 89.15 137.445 89.31 138.325 89.31C139.185 89.31 139.955 89.15 140.635 88.83C141.335 88.51 141.915 88.06 142.375 87.48C142.855 86.88 143.215 86.17 143.455 85.35C143.715 84.53 143.845 83.61 143.845 82.59C143.845 81.57 143.715 80.65 143.455 79.83C143.215 78.99 142.855 78.28 142.375 77.7C141.915 77.1 141.335 76.64 140.635 76.32C139.955 76 139.185 75.84 138.325 75.84C137.445 75.84 136.665 76.01 135.985 76.35C135.305 76.67 134.725 77.13 134.245 77.73C133.785 78.31 133.425 79.02 133.165 79.86C132.925 80.68 132.805 81.59 132.805 82.59ZM148.675 82.59C148.675 84.37 148.405 85.94 147.865 87.3C147.345 88.64 146.625 89.77 145.705 90.69C144.785 91.59 143.685 92.27 142.405 92.73C141.145 93.19 139.785 93.42 138.325 93.42C136.905 93.42 135.565 93.19 134.305 92.73C133.045 92.27 131.945 91.59 131.005 90.69C130.065 89.77 129.325 88.64 128.785 87.3C128.245 85.94 127.975 84.37 127.975 82.59C127.975 80.81 128.255 79.25 128.815 77.91C129.375 76.55 130.125 75.41 131.065 74.49C132.025 73.57 133.125 72.88 134.365 72.42C135.625 71.96 136.945 71.73 138.325 71.73C139.745 71.73 141.085 71.96 142.345 72.42C143.605 72.88 144.705 73.57 145.645 74.49C146.585 75.41 147.325 76.55 147.865 77.91C148.405 79.25 148.675 80.81 148.675 82.59ZM159.506 93.27C158.366 93.27 157.226 93.23 156.086 93.15C154.966 93.09 153.796 92.93 152.576 92.67V72.51C153.536 72.33 154.586 72.2 155.726 72.12C156.866 72.02 157.926 71.97 158.906 71.97C160.226 71.97 161.436 72.07 162.536 72.27C163.656 72.45 164.616 72.77 165.416 73.23C166.216 73.69 166.836 74.3 167.276 75.06C167.736 75.8 167.966 76.72 167.966 77.82C167.966 79.48 167.166 80.79 165.566 81.75C166.886 82.25 167.786 82.93 168.266 83.79C168.746 84.65 168.986 85.62 168.986 86.7C168.986 88.88 168.186 90.52 166.586 91.62C165.006 92.72 162.646 93.27 159.506 93.27ZM157.136 83.94V89.31C157.476 89.35 157.846 89.38 158.246 89.4C158.646 89.42 159.086 89.43 159.566 89.43C160.966 89.43 162.096 89.23 162.956 88.83C163.816 88.43 164.246 87.69 164.246 86.61C164.246 85.65 163.886 84.97 163.166 84.57C162.446 84.15 161.416 83.94 160.076 83.94H157.136ZM157.136 80.37H159.416C160.856 80.37 161.886 80.19 162.506 79.83C163.126 79.45 163.436 78.85 163.436 78.03C163.436 77.19 163.116 76.6 162.476 76.26C161.836 75.92 160.896 75.75 159.656 75.75C159.256 75.75 158.826 75.76 158.366 75.78C157.906 75.78 157.496 75.8 157.136 75.84V80.37Z" fill="black"/>
<mask id="mask0_73_312" style="mask-type:alpha" maskUnits="userSpaceOnUse" x="1" y="37" width="160" height="23">
<path d="M11.88 59.42C8.5 59.42 5.92 58.48 4.14 56.6C2.38 54.72 1.5 52.05 1.5 48.59C1.5 46.87 1.77 45.34 2.31 44C2.85 42.64 3.59 41.5 4.53 40.58C5.47 39.64 6.59 38.93 7.89 38.45C9.19 37.97 10.6 37.73 12.12 37.73C13 37.73 13.8 37.8 14.52 37.94C15.24 38.06 15.87 38.21 16.41 38.39C16.95 38.55 17.4 38.72 17.76 38.9C18.12 39.08 18.38 39.22 18.54 39.32L17.19 43.1C16.55 42.76 15.8 42.47 14.94 42.23C14.1 41.99 13.14 41.87 12.06 41.87C11.34 41.87 10.63 41.99 9.93 42.23C9.25 42.47 8.64 42.86 8.1 43.4C7.58 43.92 7.16 44.6 6.84 45.44C6.52 46.28 6.36 47.3 6.36 48.5C6.36 49.46 6.46 50.36 6.66 51.2C6.88 52.02 7.22 52.73 7.68 53.33C8.16 53.93 8.78 54.41 9.54 54.77C10.3 55.11 11.22 55.28 12.3 55.28C12.98 55.28 13.59 55.24 14.13 55.16C14.67 55.08 15.15 54.99 15.57 54.89C15.99 54.77 16.36 54.64 16.68 54.5C17 54.36 17.29 54.23 17.55 54.11L18.84 57.86C18.18 58.26 17.25 58.62 16.05 58.94C14.85 59.26 13.46 59.42 11.88 59.42ZM28.0931 37.97C31.1931 37.97 33.5731 38.52 35.2331 39.62C36.8931 40.7 37.7231 42.48 37.7231 44.96C37.7231 47.46 36.8831 49.27 35.2031 50.39C33.5231 51.49 31.1231 52.04 28.0031 52.04H26.5331V59H21.8531V38.51C22.8731 38.31 23.9531 38.17 25.0931 38.09C26.2331 38.01 27.2331 37.97 28.0931 37.97ZM28.3931 41.96C28.0531 41.96 27.7131 41.97 27.3731 41.99C27.0531 42.01 26.7731 42.03 26.5331 42.05V48.05H28.0031C29.6231 48.05 30.8431 47.83 31.6631 47.39C32.4831 46.95 32.8931 46.13 32.8931 44.93C32.8931 44.35 32.7831 43.87 32.5631 43.49C32.3631 43.11 32.0631 42.81 31.6631 42.59C31.2831 42.35 30.8131 42.19 30.2531 42.11C29.6931 42.01 29.0731 41.96 28.3931 41.96ZM53.029 59C52.809 58.28 52.559 57.54 52.279 56.78C52.019 56.02 51.759 55.26 51.499 54.5H43.399C43.139 55.26 42.869 56.02 42.589 56.78C42.329 57.54 42.089 58.28 41.869 59H37.009C37.789 56.76 38.529 54.69 39.229 52.79C39.929 50.89 40.609 49.1 41.269 47.42C41.949 45.74 42.609 44.15 43.249 42.65C43.909 41.13 44.589 39.65 45.289 38.21H49.759C50.439 39.65 51.109 41.13 51.769 42.65C52.429 44.15 53.089 45.74 53.749 47.42C54.429 49.1 55.119 50.89 55.819 52.79C56.519 54.69 57.259 56.76 58.039 59H53.029ZM47.419 42.92C47.319 43.22 47.169 43.63 46.969 44.15C46.769 44.67 46.539 45.27 46.279 45.95C46.019 46.63 45.729 47.38 45.409 48.2C45.109 49.02 44.799 49.88 44.479 50.78H50.389C50.069 49.88 49.759 49.02 49.459 48.2C49.159 47.38 48.869 46.63 48.589 45.95C48.329 45.27 48.099 44.67 47.899 44.15C47.699 43.63 47.539 43.22 47.419 42.92ZM67.6601 59.27C66.5201 59.27 65.3801 59.23 64.2401 59.15C63.1201 59.09 61.9501 58.93 60.7301 58.67V38.51C61.6901 38.33 62.7401 38.2 63.8801 38.12C65.0201 38.02 66.0801 37.97 67.0601 37.97C68.3801 37.97 69.5901 38.07 70.6901 38.27C71.8101 38.45 72.7701 38.77 73.5701 39.23C74.3701 39.69 74.9901 40.3 75.4301 41.06C75.8901 41.8 76.1201 42.72 76.1201 43.82C76.1201 45.48 75.3201 46.79 73.7201 47.75C75.0401 48.25 75.9401 48.93 76.4201 49.79C76.9001 50.65 77.1401 51.62 77.1401 52.7C77.1401 54.88 76.3401 56.52 74.7401 57.62C73.1601 58.72 70.8001 59.27 67.6601 59.27ZM65.2901 49.94V55.31C65.6301 55.35 66.0001 55.38 66.4001 55.4C66.8001 55.42 67.2401 55.43 67.7201 55.43C69.1201 55.43 70.2501 55.23 71.1101 54.83C71.9701 54.43 72.4001 53.69 72.4001 52.61C72.4001 51.65 72.0401 50.97 71.3201 50.57C70.6001 50.15 69.5701 49.94 68.2301 49.94H65.2901ZM65.2901 46.37H67.5701C69.0101 46.37 70.0401 46.19 70.6601 45.83C71.2801 45.45 71.5901 44.85 71.5901 44.03C71.5901 43.19 71.2701 42.6 70.6301 42.26C69.9901 41.92 69.0501 41.75 67.8101 41.75C67.4101 41.75 66.9801 41.76 66.5201 41.78C66.0601 41.78 65.6501 41.8 65.2901 41.84V46.37ZM93.4263 38.21H98.1063V59H93.4263V50.18H85.5663V59H80.8863V38.21H85.5663V46.16H93.4263V38.21ZM102.918 59V38.21H107.568V50.48C108.288 49.4 109.058 48.28 109.878 47.12C110.698 45.94 111.518 44.81 112.338 43.73C113.178 42.63 113.998 41.6 114.798 40.64C115.598 39.68 116.328 38.87 116.988 38.21H120.798V59H116.178V45.38C114.418 47.44 112.758 49.63 111.198 51.95C109.638 54.27 108.188 56.62 106.848 59H102.918ZM141.013 38.21V42.2H134.743V59H130.063V42.2H123.793V38.21H141.013ZM160.041 52.19C160.041 54.51 159.181 56.27 157.461 57.47C155.741 58.67 153.341 59.27 150.261 59.27C149.401 59.27 148.411 59.21 147.291 59.09C146.191 58.97 145.101 58.78 144.021 58.52V38.21H148.701V45.11C148.961 45.09 149.191 45.08 149.391 45.08C149.611 45.08 149.831 45.08 150.051 45.08C153.431 45.08 155.941 45.66 157.581 46.82C159.221 47.98 160.041 49.77 160.041 52.19ZM149.631 49.04C149.531 49.04 149.391 49.04 149.211 49.04C149.031 49.04 148.861 49.05 148.701 49.07V55.28C148.921 55.3 149.171 55.31 149.451 55.31C149.731 55.31 150.071 55.31 150.471 55.31C151.091 55.31 151.691 55.26 152.271 55.16C152.851 55.06 153.361 54.89 153.801 54.65C154.241 54.41 154.591 54.09 154.851 53.69C155.111 53.29 155.241 52.79 155.241 52.19C155.241 51.57 155.111 51.06 154.851 50.66C154.591 50.26 154.211 49.94 153.711 49.7C153.231 49.46 152.641 49.29 151.941 49.19C151.261 49.09 150.491 49.04 149.631 49.04Z" fill="black"/>
</mask>
<g mask="url(#mask0_73_312)">
<rect x="1" y="37" width="160" height="23" fill="url(#paint0_linear_73_312)"/>
</g>
<path d="M6.902 3.298V4.474H2.562V13H1.204V3.298H6.902ZM9.19111 6.812C9.19111 7.12 9.18178 7.45133 9.16311 7.806C9.15378 8.15133 9.13044 8.50133 9.09311 8.856C9.05578 9.20133 9.00444 9.54667 8.93911 9.892C8.87378 10.228 8.78978 10.5453 8.68711 10.844C8.58444 11.1427 8.45378 11.4227 8.29511 11.684C8.14578 11.9453 7.95911 12.1787 7.73511 12.384C7.51111 12.58 7.24978 12.748 6.95111 12.888C6.65244 13.0187 6.30244 13.1027 5.90111 13.14L5.71911 12.048C6.17644 11.9547 6.53578 11.782 6.79711 11.53C7.06778 11.278 7.28244 10.97 7.44111 10.606C7.58111 10.2887 7.68378 9.92933 7.74911 9.528C7.81444 9.12667 7.86111 8.71133 7.88911 8.282C7.91711 7.84333 7.93111 7.40467 7.93111 6.966C7.94044 6.52733 7.94511 6.112 7.94511 5.72H12.7891V13H11.4871V6.812H9.19111ZM17.4883 12.062C17.7963 12.062 18.067 12.0573 18.3003 12.048C18.543 12.0293 18.7436 12.0013 18.9023 11.964V9.794C18.809 9.74733 18.655 9.71 18.4403 9.682C18.235 9.64467 17.983 9.626 17.6843 9.626C17.4883 9.626 17.2783 9.64 17.0543 9.668C16.8396 9.696 16.639 9.75667 16.4523 9.85C16.275 9.934 16.1256 10.0553 16.0043 10.214C15.883 10.3633 15.8223 10.564 15.8223 10.816C15.8223 11.2827 15.9716 11.6093 16.2703 11.796C16.569 11.9733 16.975 12.062 17.4883 12.062ZM17.3763 5.538C17.899 5.538 18.3376 5.608 18.6923 5.748C19.0563 5.87867 19.3456 6.07 19.5603 6.322C19.7843 6.56467 19.943 6.85867 20.0363 7.204C20.1296 7.54 20.1763 7.91333 20.1763 8.324V12.874C20.0643 12.8927 19.9056 12.9207 19.7003 12.958C19.5043 12.986 19.2803 13.014 19.0283 13.042C18.7763 13.07 18.501 13.0933 18.2023 13.112C17.913 13.14 17.6236 13.154 17.3343 13.154C16.9236 13.154 16.5456 13.112 16.2003 13.028C15.855 12.944 15.5563 12.8133 15.3043 12.636C15.0523 12.4493 14.8563 12.2067 14.7163 11.908C14.5763 11.6093 14.5063 11.25 14.5063 10.83C14.5063 10.4287 14.5856 10.0833 14.7443 9.794C14.9123 9.50467 15.1363 9.27133 15.4163 9.094C15.6963 8.91667 16.023 8.786 16.3963 8.702C16.7696 8.618 17.1616 8.576 17.5723 8.576C17.703 8.576 17.8383 8.58533 17.9783 8.604C18.1183 8.61333 18.249 8.632 18.3703 8.66C18.501 8.67867 18.613 8.69733 18.7063 8.716C18.7996 8.73467 18.865 8.74867 18.9023 8.758V8.394C18.9023 8.17933 18.879 7.96933 18.8323 7.764C18.7856 7.54933 18.7016 7.36267 18.5803 7.204C18.459 7.036 18.291 6.90533 18.0763 6.812C17.871 6.70933 17.6003 6.658 17.2643 6.658C16.835 6.658 16.457 6.69067 16.1303 6.756C15.813 6.812 15.575 6.87267 15.4163 6.938L15.2623 5.86C15.4303 5.78533 15.7103 5.71533 16.1023 5.65C16.4943 5.57533 16.919 5.538 17.3763 5.538ZM23.6128 12.02C23.6688 12.0293 23.7481 12.0387 23.8508 12.048C23.9534 12.0573 24.0701 12.0667 24.2008 12.076C24.3314 12.076 24.4668 12.0807 24.6068 12.09C24.7561 12.09 24.8961 12.09 25.0268 12.09C25.2974 12.09 25.5541 12.0713 25.7968 12.034C26.0488 11.9967 26.2634 11.9313 26.4408 11.838C26.6274 11.7447 26.7721 11.6233 26.8748 11.474C26.9868 11.3153 27.0428 11.1147 27.0428 10.872C27.0428 10.6387 26.9914 10.4473 26.8888 10.298C26.7954 10.1393 26.6648 10.0133 26.4968 9.92C26.3288 9.82667 26.1281 9.76133 25.8948 9.724C25.6708 9.68667 25.4281 9.668 25.1668 9.668H23.6128V12.02ZM24.9988 8.702C25.2508 8.702 25.4794 8.688 25.6848 8.66C25.8994 8.62267 26.0814 8.562 26.2308 8.478C26.3894 8.394 26.5108 8.282 26.5948 8.142C26.6881 8.002 26.7348 7.82467 26.7348 7.61C26.7348 7.386 26.6788 7.20867 26.5668 7.078C26.4548 6.94733 26.3054 6.84933 26.1188 6.784C25.9414 6.70933 25.7361 6.66267 25.5028 6.644C25.2788 6.616 25.0501 6.602 24.8167 6.602C24.6021 6.602 24.3828 6.60667 24.1588 6.616C23.9441 6.62533 23.7621 6.63467 23.6128 6.644V8.702H24.9988ZM24.9708 13.126C24.4201 13.126 23.9114 13.098 23.4448 13.042C22.9781 12.9953 22.6094 12.9393 22.3388 12.874V5.79C22.6094 5.72467 22.9781 5.66867 23.4448 5.622C23.9114 5.566 24.4201 5.538 24.9708 5.538C25.3534 5.538 25.7268 5.57067 26.0908 5.636C26.4548 5.70133 26.7768 5.81333 27.0568 5.972C27.3368 6.12133 27.5608 6.33133 27.7288 6.602C27.9061 6.86333 27.9948 7.19 27.9948 7.582C27.9948 7.93667 27.9061 8.24 27.7288 8.492C27.5514 8.744 27.3134 8.94 27.0148 9.08C27.4161 9.22 27.7334 9.43 27.9668 9.71C28.2094 9.98067 28.3308 10.3633 28.3308 10.858C28.3308 11.2967 28.2421 11.6607 28.0648 11.95C27.8968 12.2393 27.6588 12.4727 27.3508 12.65C27.0521 12.8273 26.6974 12.9487 26.2868 13.014C25.8761 13.0887 25.4374 13.126 24.9708 13.126ZM35.9727 13H34.6707V9.78H31.3107V13H30.0087V5.72H31.3107V8.688H34.6707V5.72H35.9727V13ZM40.6758 12.062C40.9838 12.062 41.2545 12.0573 41.4878 12.048C41.7305 12.0293 41.9311 12.0013 42.0898 11.964V9.794C41.9965 9.74733 41.8425 9.71 41.6278 9.682C41.4225 9.64467 41.1705 9.626 40.8718 9.626C40.6758 9.626 40.4658 9.64 40.2418 9.668C40.0271 9.696 39.8265 9.75667 39.6398 9.85C39.4625 9.934 39.3131 10.0553 39.1918 10.214C39.0705 10.3633 39.0098 10.564 39.0098 10.816C39.0098 11.2827 39.1591 11.6093 39.4578 11.796C39.7565 11.9733 40.1625 12.062 40.6758 12.062ZM40.5638 5.538C41.0865 5.538 41.5251 5.608 41.8798 5.748C42.2438 5.87867 42.5331 6.07 42.7478 6.322C42.9718 6.56467 43.1305 6.85867 43.2238 7.204C43.3171 7.54 43.3638 7.91333 43.3638 8.324V12.874C43.2518 12.8927 43.0931 12.9207 42.8878 12.958C42.6918 12.986 42.4678 13.014 42.2158 13.042C41.9638 13.07 41.6885 13.0933 41.3898 13.112C41.1005 13.14 40.8111 13.154 40.5218 13.154C40.1111 13.154 39.7331 13.112 39.3878 13.028C39.0425 12.944 38.7438 12.8133 38.4918 12.636C38.2398 12.4493 38.0438 12.2067 37.9038 11.908C37.7638 11.6093 37.6938 11.25 37.6938 10.83C37.6938 10.4287 37.7731 10.0833 37.9318 9.794C38.0998 9.50467 38.3238 9.27133 38.6038 9.094C38.8838 8.91667 39.2105 8.786 39.5838 8.702C39.9571 8.618 40.3491 8.576 40.7598 8.576C40.8905 8.576 41.0258 8.58533 41.1658 8.604C41.3058 8.61333 41.4365 8.632 41.5578 8.66C41.6885 8.67867 41.8005 8.69733 41.8938 8.716C41.9871 8.73467 42.0525 8.74867 42.0898 8.758V8.394C42.0898 8.17933 42.0665 7.96933 42.0198 7.764C41.9731 7.54933 41.8891 7.36267 41.7678 7.204C41.6465 7.036 41.4785 6.90533 41.2638 6.812C41.0585 6.70933 40.7878 6.658 40.4518 6.658C40.0225 6.658 39.6445 6.69067 39.3178 6.756C39.0005 6.812 38.7625 6.87267 38.6038 6.938L38.4498 5.86C38.6178 5.78533 38.8978 5.71533 39.2898 5.65C39.6818 5.57533 40.1065 5.538 40.5638 5.538ZM48.5363 10.172C48.3963 10.172 48.2609 10.172 48.1303 10.172C47.9996 10.1627 47.8736 10.1533 47.7523 10.144C47.4536 10.592 47.1643 11.0727 46.8843 11.586C46.6136 12.09 46.3709 12.5613 46.1562 13H44.8403C44.9523 12.7293 45.0829 12.454 45.2323 12.174C45.3816 11.8847 45.5309 11.6047 45.6803 11.334C45.8389 11.0633 45.9976 10.8067 46.1562 10.564C46.3149 10.3213 46.4643 10.102 46.6043 9.906C46.3429 9.81267 46.1283 9.70067 45.9603 9.57C45.7923 9.43 45.6569 9.276 45.5543 9.108C45.4516 8.94 45.3769 8.76267 45.3302 8.576C45.2929 8.38 45.2743 8.184 45.2743 7.988C45.2743 7.57733 45.3489 7.218 45.4983 6.91C45.6569 6.602 45.8716 6.35 46.1423 6.154C46.4129 5.94867 46.7303 5.79467 47.0943 5.692C47.4676 5.58933 47.8736 5.538 48.3123 5.538C48.9283 5.538 49.4509 5.566 49.8803 5.622C50.3096 5.678 50.6689 5.74333 50.9583 5.818V13H49.6703V10.172H48.5363ZM49.6703 6.686C49.5676 6.66733 49.3949 6.64867 49.1523 6.63C48.9189 6.61133 48.6483 6.602 48.3403 6.602C47.8083 6.602 47.3789 6.714 47.0523 6.938C46.7256 7.15267 46.5623 7.498 46.5623 7.974C46.5623 8.44067 46.7303 8.76267 47.0663 8.94C47.4023 9.11733 47.8363 9.206 48.3683 9.206H49.6703V6.686ZM56.3104 15.59H54.9804L59.7264 2.038H61.0284L56.3104 15.59ZM69.3057 13.21C68.6244 13.21 68.0037 13.098 67.4437 12.874C66.8837 12.65 66.403 12.3233 66.0017 11.894C65.6004 11.4647 65.2877 10.9373 65.0637 10.312C64.849 9.67733 64.7417 8.954 64.7417 8.142C64.7417 7.33 64.863 6.61133 65.1057 5.986C65.3577 5.35133 65.6937 4.81933 66.1137 4.39C66.5337 3.96067 67.0237 3.634 67.5837 3.41C68.1437 3.186 68.741 3.074 69.3757 3.074C69.777 3.074 70.1364 3.102 70.4537 3.158C70.7804 3.214 71.0604 3.27933 71.2937 3.354C71.5364 3.42867 71.7324 3.50333 71.8817 3.578C72.031 3.65267 72.1337 3.70867 72.1897 3.746L71.7977 4.866C71.7137 4.81 71.5924 4.74933 71.4337 4.684C71.275 4.61867 71.093 4.55333 70.8877 4.488C70.6917 4.42267 70.4724 4.37133 70.2297 4.334C69.9964 4.28733 69.7584 4.264 69.5157 4.264C69.0024 4.264 68.5404 4.35267 68.1297 4.53C67.719 4.70733 67.369 4.964 67.0797 5.3C66.7904 5.636 66.5664 6.04667 66.4077 6.532C66.2584 7.008 66.1837 7.54467 66.1837 8.142C66.1837 8.72067 66.249 9.248 66.3797 9.724C66.5197 10.2 66.725 10.6107 66.9957 10.956C67.2664 11.292 67.6024 11.5533 68.0037 11.74C68.4144 11.9267 68.8904 12.02 69.4317 12.02C70.057 12.02 70.575 11.9547 70.9857 11.824C71.3964 11.6933 71.7044 11.5767 71.9097 11.474L72.2597 12.594C72.1944 12.6407 72.0777 12.7013 71.9097 12.776C71.7417 12.8413 71.5317 12.9067 71.2797 12.972C71.0277 13.0373 70.7337 13.0933 70.3977 13.14C70.0617 13.1867 69.6977 13.21 69.3057 13.21ZM78.7853 9.374C78.7853 8.52467 78.5753 7.87133 78.1553 7.414C77.7353 6.95667 77.1753 6.728 76.4753 6.728C76.0833 6.728 75.7753 6.742 75.5513 6.77C75.3367 6.798 75.164 6.83067 75.0333 6.868V11.46C75.192 11.5907 75.4207 11.7167 75.7193 11.838C76.018 11.9593 76.3447 12.02 76.6993 12.02C77.0727 12.02 77.39 11.9547 77.6513 11.824C77.922 11.684 78.1413 11.4973 78.3093 11.264C78.4773 11.0213 78.5987 10.7413 78.6733 10.424C78.748 10.0973 78.7853 9.74733 78.7853 9.374ZM80.1433 9.374C80.1433 9.92467 80.0687 10.4333 79.9193 10.9C79.7793 11.3667 79.5693 11.768 79.2893 12.104C79.0093 12.44 78.664 12.7013 78.2533 12.888C77.852 13.0747 77.39 13.168 76.8673 13.168C76.4473 13.168 76.074 13.112 75.7473 13C75.43 12.888 75.192 12.7807 75.0333 12.678V15.59H73.7313V5.944C74.0393 5.86933 74.422 5.79 74.8793 5.706C75.346 5.61267 75.8827 5.566 76.4893 5.566C77.0493 5.566 77.5533 5.65467 78.0013 5.832C78.4493 6.00933 78.832 6.26133 79.1493 6.588C79.4667 6.91467 79.7093 7.316 79.8773 7.792C80.0547 8.25867 80.1433 8.786 80.1433 9.374ZM84.4395 12.062C84.7475 12.062 85.0181 12.0573 85.2515 12.048C85.4941 12.0293 85.6948 12.0013 85.8535 11.964V9.794C85.7601 9.74733 85.6061 9.71 85.3915 9.682C85.1861 9.64467 84.9341 9.626 84.6355 9.626C84.4395 9.626 84.2295 9.64 84.0055 9.668C83.7908 9.696 83.5901 9.75667 83.4035 9.85C83.2261 9.934 83.0768 10.0553 82.9555 10.214C82.8341 10.3633 82.7735 10.564 82.7735 10.816C82.7735 11.2827 82.9228 11.6093 83.2215 11.796C83.5201 11.9733 83.9261 12.062 84.4395 12.062ZM84.3275 5.538C84.8501 5.538 85.2888 5.608 85.6435 5.748C86.0075 5.87867 86.2968 6.07 86.5115 6.322C86.7355 6.56467 86.8941 6.85867 86.9875 7.204C87.0808 7.54 87.1275 7.91333 87.1275 8.324V12.874C87.0155 12.8927 86.8568 12.9207 86.6515 12.958C86.4555 12.986 86.2315 13.014 85.9795 13.042C85.7275 13.07 85.4521 13.0933 85.1535 13.112C84.8641 13.14 84.5748 13.154 84.2855 13.154C83.8748 13.154 83.4968 13.112 83.1515 13.028C82.8061 12.944 82.5075 12.8133 82.2555 12.636C82.0035 12.4493 81.8075 12.2067 81.6675 11.908C81.5275 11.6093 81.4575 11.25 81.4575 10.83C81.4575 10.4287 81.5368 10.0833 81.6955 9.794C81.8635 9.50467 82.0875 9.27133 82.3675 9.094C82.6475 8.91667 82.9741 8.786 83.3475 8.702C83.7208 8.618 84.1128 8.576 84.5235 8.576C84.6541 8.576 84.7895 8.58533 84.9295 8.604C85.0695 8.61333 85.2001 8.632 85.3215 8.66C85.4521 8.67867 85.5641 8.69733 85.6575 8.716C85.7508 8.73467 85.8161 8.74867 85.8535 8.758V8.394C85.8535 8.17933 85.8301 7.96933 85.7835 7.764C85.7368 7.54933 85.6528 7.36267 85.5315 7.204C85.4101 7.036 85.2421 6.90533 85.0275 6.812C84.8221 6.70933 84.5515 6.658 84.2155 6.658C83.7861 6.658 83.4081 6.69067 83.0815 6.756C82.7641 6.812 82.5261 6.87267 82.3675 6.938L82.2135 5.86C82.3815 5.78533 82.6615 5.71533 83.0535 5.65C83.4455 5.57533 83.8701 5.538 84.3275 5.538ZM90.5639 12.02C90.6199 12.0293 90.6993 12.0387 90.8019 12.048C90.9046 12.0573 91.0213 12.0667 91.1519 12.076C91.2826 12.076 91.4179 12.0807 91.5579 12.09C91.7073 12.09 91.8473 12.09 91.9779 12.09C92.2486 12.09 92.5053 12.0713 92.7479 12.034C92.9999 11.9967 93.2146 11.9313 93.3919 11.838C93.5786 11.7447 93.7233 11.6233 93.8259 11.474C93.9379 11.3153 93.9939 11.1147 93.9939 10.872C93.9939 10.6387 93.9426 10.4473 93.8399 10.298C93.7466 10.1393 93.6159 10.0133 93.4479 9.92C93.2799 9.82667 93.0793 9.76133 92.8459 9.724C92.6219 9.68667 92.3793 9.668 92.1179 9.668H90.5639V12.02ZM91.9499 8.702C92.2019 8.702 92.4306 8.688 92.6359 8.66C92.8506 8.62267 93.0326 8.562 93.1819 8.478C93.3406 8.394 93.4619 8.282 93.5459 8.142C93.6393 8.002 93.6859 7.82467 93.6859 7.61C93.6859 7.386 93.6299 7.20867 93.5179 7.078C93.4059 6.94733 93.2566 6.84933 93.0699 6.784C92.8926 6.70933 92.6873 6.66267 92.4539 6.644C92.2299 6.616 92.0013 6.602 91.7679 6.602C91.5533 6.602 91.3339 6.60667 91.1099 6.616C90.8953 6.62533 90.7133 6.63467 90.5639 6.644V8.702H91.9499ZM91.9219 13.126C91.3713 13.126 90.8626 13.098 90.3959 13.042C89.9293 12.9953 89.5606 12.9393 89.2899 12.874V5.79C89.5606 5.72467 89.9293 5.66867 90.3959 5.622C90.8626 5.566 91.3713 5.538 91.9219 5.538C92.3046 5.538 92.6779 5.57067 93.0419 5.636C93.4059 5.70133 93.7279 5.81333 94.0079 5.972C94.2879 6.12133 94.5119 6.33133 94.6799 6.602C94.8573 6.86333 94.9459 7.19 94.9459 7.582C94.9459 7.93667 94.8573 8.24 94.6799 8.492C94.5026 8.744 94.2646 8.94 93.9659 9.08C94.3673 9.22 94.6846 9.43 94.9179 9.71C95.1606 9.98067 95.2819 10.3633 95.2819 10.858C95.2819 11.2967 95.1933 11.6607 95.0159 11.95C94.8479 12.2393 94.6099 12.4727 94.3019 12.65C94.0033 12.8273 93.6486 12.9487 93.2379 13.014C92.8273 13.0887 92.3886 13.126 91.9219 13.126ZM102.924 13H101.622V9.78H98.2618V13H96.9598V5.72H98.2618V8.688H101.622V5.72H102.924V13ZM111.281 5.72V13H110.021V7.456C109.741 7.81067 109.433 8.226 109.097 8.702C108.761 9.178 108.425 9.67267 108.089 10.186C107.753 10.69 107.431 11.1893 107.123 11.684C106.815 12.1787 106.549 12.6173 106.325 13H105.163V5.72H106.423V10.956C106.666 10.5547 106.941 10.116 107.249 9.64C107.557 9.15467 107.874 8.67867 108.201 8.212C108.537 7.736 108.868 7.28333 109.195 6.854C109.531 6.41533 109.844 6.03733 110.133 5.72H111.281ZM118.654 5.72V6.812H116.288V13H114.986V6.812H112.62V5.72H118.654ZM122.755 12.09C123.306 12.09 123.74 11.9827 124.057 11.768C124.374 11.5533 124.533 11.208 124.533 10.732C124.533 10.4987 124.486 10.298 124.393 10.13C124.3 9.962 124.169 9.82667 124.001 9.724C123.842 9.612 123.656 9.53267 123.441 9.486C123.226 9.43 122.998 9.402 122.755 9.402C122.503 9.402 122.242 9.41133 121.971 9.43C121.71 9.43933 121.486 9.46733 121.299 9.514V12.02C121.355 12.0293 121.439 12.0387 121.551 12.048C121.663 12.0573 121.784 12.0667 121.915 12.076C122.055 12.076 122.195 12.0807 122.335 12.09C122.484 12.09 122.624 12.09 122.755 12.09ZM119.997 12.846V5.72H121.299V8.506C121.374 8.48733 121.472 8.46867 121.593 8.45C121.724 8.43133 121.859 8.41267 121.999 8.394C122.148 8.37533 122.302 8.36133 122.461 8.352C122.62 8.34267 122.769 8.338 122.909 8.338C123.31 8.338 123.688 8.38467 124.043 8.478C124.398 8.562 124.706 8.702 124.967 8.898C125.238 9.08467 125.452 9.332 125.611 9.64C125.77 9.93867 125.849 10.298 125.849 10.718C125.849 11.1567 125.774 11.53 125.625 11.838C125.476 12.146 125.261 12.398 124.981 12.594C124.701 12.79 124.365 12.93 123.973 13.014C123.59 13.1073 123.161 13.154 122.685 13.154C122.218 13.154 121.761 13.126 121.313 13.07C120.865 13.0233 120.426 12.9487 119.997 12.846ZM135.772 5.72V6.812H133.406V13H132.104V6.812H129.738V5.72H135.772ZM143.54 9.36C143.54 9.93867 143.456 10.4613 143.288 10.928C143.12 11.3947 142.882 11.796 142.574 12.132C142.275 12.468 141.916 12.7293 141.496 12.916C141.076 13.0933 140.619 13.182 140.124 13.182C139.629 13.182 139.172 13.0933 138.752 12.916C138.332 12.7293 137.968 12.468 137.66 12.132C137.361 11.796 137.128 11.3947 136.96 10.928C136.792 10.4613 136.708 9.93867 136.708 9.36C136.708 8.79067 136.792 8.27267 136.96 7.806C137.128 7.33 137.361 6.924 137.66 6.588C137.968 6.252 138.332 5.99533 138.752 5.818C139.172 5.63133 139.629 5.538 140.124 5.538C140.619 5.538 141.076 5.63133 141.496 5.818C141.916 5.99533 142.275 6.252 142.574 6.588C142.882 6.924 143.12 7.33 143.288 7.806C143.456 8.27267 143.54 8.79067 143.54 9.36ZM142.182 9.36C142.182 8.53867 141.995 7.89 141.622 7.414C141.258 6.92867 140.759 6.686 140.124 6.686C139.489 6.686 138.985 6.92867 138.612 7.414C138.248 7.89 138.066 8.53867 138.066 9.36C138.066 10.1813 138.248 10.8347 138.612 11.32C138.985 11.796 139.489 12.034 140.124 12.034C140.759 12.034 141.258 11.796 141.622 11.32C141.995 10.8347 142.182 10.1813 142.182 9.36ZM146.646 12.02C146.702 12.0293 146.781 12.0387 146.884 12.048C146.987 12.0573 147.103 12.0667 147.234 12.076C147.365 12.076 147.5 12.0807 147.64 12.09C147.789 12.09 147.929 12.09 148.06 12.09C148.331 12.09 148.587 12.0713 148.83 12.034C149.082 11.9967 149.297 11.9313 149.474 11.838C149.661 11.7447 149.805 11.6233 149.908 11.474C150.02 11.3153 150.076 11.1147 150.076 10.872C150.076 10.6387 150.025 10.4473 149.922 10.298C149.829 10.1393 149.698 10.0133 149.53 9.92C149.362 9.82667 149.161 9.76133 148.928 9.724C148.704 9.68667 148.461 9.668 148.2 9.668H146.646V12.02ZM148.032 8.702C148.284 8.702 148.513 8.688 148.718 8.66C148.933 8.62267 149.115 8.562 149.264 8.478C149.423 8.394 149.544 8.282 149.628 8.142C149.721 8.002 149.768 7.82467 149.768 7.61C149.768 7.386 149.712 7.20867 149.6 7.078C149.488 6.94733 149.339 6.84933 149.152 6.784C148.975 6.70933 148.769 6.66267 148.536 6.644C148.312 6.616 148.083 6.602 147.85 6.602C147.635 6.602 147.416 6.60667 147.192 6.616C146.977 6.62533 146.795 6.63467 146.646 6.644V8.702H148.032ZM148.004 13.126C147.453 13.126 146.945 13.098 146.478 13.042C146.011 12.9953 145.643 12.9393 145.372 12.874V5.79C145.643 5.72467 146.011 5.66867 146.478 5.622C146.945 5.566 147.453 5.538 148.004 5.538C148.387 5.538 148.76 5.57067 149.124 5.636C149.488 5.70133 149.81 5.81333 150.09 5.972C150.37 6.12133 150.594 6.33133 150.762 6.602C150.939 6.86333 151.028 7.19 151.028 7.582C151.028 7.93667 150.939 8.24 150.762 8.492C150.585 8.744 150.347 8.94 150.048 9.08C150.449 9.22 150.767 9.43 151 9.71C151.243 9.98067 151.364 10.3633 151.364 10.858C151.364 11.2967 151.275 11.6607 151.098 11.95C150.93 12.2393 150.692 12.4727 150.384 12.65C150.085 12.8273 149.731 12.9487 149.32 13.014C148.909 13.0887 148.471 13.126 148.004 13.126ZM155.506 12.062C155.814 12.062 156.085 12.0573 156.318 12.048C156.561 12.0293 156.761 12.0013 156.92 11.964V9.794C156.827 9.74733 156.673 9.71 156.458 9.682C156.253 9.64467 156.001 9.626 155.702 9.626C155.506 9.626 155.296 9.64 155.072 9.668C154.857 9.696 154.657 9.75667 154.47 9.85C154.293 9.934 154.143 10.0553 154.022 10.214C153.901 10.3633 153.84 10.564 153.84 10.816C153.84 11.2827 153.989 11.6093 154.288 11.796C154.587 11.9733 154.993 12.062 155.506 12.062ZM155.394 5.538C155.917 5.538 156.355 5.608 156.71 5.748C157.074 5.87867 157.363 6.07 157.578 6.322C157.802 6.56467 157.961 6.85867 158.054 7.204C158.147 7.54 158.194 7.91333 158.194 8.324V12.874C158.082 12.8927 157.923 12.9207 157.718 12.958C157.522 12.986 157.298 13.014 157.046 13.042C156.794 13.07 156.519 13.0933 156.22 13.112C155.931 13.14 155.641 13.154 155.352 13.154C154.941 13.154 154.563 13.112 154.218 13.028C153.873 12.944 153.574 12.8133 153.322 12.636C153.07 12.4493 152.874 12.2067 152.734 11.908C152.594 11.6093 152.524 11.25 152.524 10.83C152.524 10.4287 152.603 10.0833 152.762 9.794C152.93 9.50467 153.154 9.27133 153.434 9.094C153.714 8.91667 154.041 8.786 154.414 8.702C154.787 8.618 155.179 8.576 155.59 8.576C155.721 8.576 155.856 8.58533 155.996 8.604C156.136 8.61333 156.267 8.632 156.388 8.66C156.519 8.67867 156.631 8.69733 156.724 8.716C156.817 8.73467 156.883 8.74867 156.92 8.758V8.394C156.92 8.17933 156.897 7.96933 156.85 7.764C156.803 7.54933 156.719 7.36267 156.598 7.204C156.477 7.036 156.309 6.90533 156.094 6.812C155.889 6.70933 155.618 6.658 155.282 6.658C154.853 6.658 154.475 6.69067 154.148 6.756C153.831 6.812 153.593 6.87267 153.434 6.938L153.28 5.86C153.448 5.78533 153.728 5.71533 154.12 5.65C154.512 5.57533 154.937 5.538 155.394 5.538ZM165.41 9.374C165.41 8.52467 165.2 7.87133 164.78 7.414C164.36 6.95667 163.8 6.728 163.1 6.728C162.708 6.728 162.4 6.742 162.176 6.77C161.962 6.798 161.789 6.83067 161.658 6.868V11.46C161.817 11.5907 162.046 11.7167 162.344 11.838C162.643 11.9593 162.97 12.02 163.324 12.02C163.698 12.02 164.015 11.9547 164.276 11.824C164.547 11.684 164.766 11.4973 164.934 11.264C165.102 11.0213 165.224 10.7413 165.298 10.424C165.373 10.0973 165.41 9.74733 165.41 9.374ZM166.768 9.374C166.768 9.92467 166.694 10.4333 166.544 10.9C166.404 11.3667 166.194 11.768 165.914 12.104C165.634 12.44 165.289 12.7013 164.878 12.888C164.477 13.0747 164.015 13.168 163.492 13.168C163.072 13.168 162.699 13.112 162.372 13C162.055 12.888 161.817 12.7807 161.658 12.678V15.59H160.356V5.944C160.664 5.86933 161.047 5.79 161.504 5.706C161.971 5.61267 162.508 5.566 163.114 5.566C163.674 5.566 164.178 5.65467 164.626 5.832C165.074 6.00933 165.457 6.26133 165.774 6.588C166.092 6.91467 166.334 7.316 166.502 7.792C166.68 8.25867 166.768 8.786 166.768 9.374ZM171.274 9.402C171.022 9.402 170.775 9.41133 170.532 9.43C170.299 9.43933 170.089 9.46733 169.902 9.514V12.02C169.958 12.0293 170.038 12.0387 170.14 12.048C170.252 12.0573 170.369 12.0667 170.49 12.076C170.621 12.076 170.752 12.0807 170.882 12.09C171.013 12.09 171.13 12.09 171.232 12.09C171.802 12.09 172.24 11.9827 172.548 11.768C172.856 11.5533 173.01 11.208 173.01 10.732C173.01 10.4987 172.959 10.298 172.856 10.13C172.763 9.962 172.632 9.82667 172.464 9.724C172.306 9.612 172.124 9.53267 171.918 9.486C171.713 9.43 171.498 9.402 171.274 9.402ZM168.6 5.72H169.902V8.506C170.061 8.46867 170.29 8.43133 170.588 8.394C170.896 8.35667 171.19 8.338 171.47 8.338C171.853 8.338 172.217 8.38467 172.562 8.478C172.908 8.562 173.211 8.702 173.472 8.898C173.734 9.08467 173.939 9.332 174.088 9.64C174.247 9.93867 174.326 10.298 174.326 10.718C174.326 11.1567 174.252 11.53 174.102 11.838C173.953 12.146 173.743 12.398 173.472 12.594C173.202 12.79 172.875 12.93 172.492 13.014C172.11 13.1073 171.69 13.154 171.232 13.154C170.794 13.154 170.35 13.126 169.902 13.07C169.454 13.0233 169.02 12.9487 168.6 12.846V5.72ZM176.972 13H175.67V5.72H176.972V13Z" fill="#75758A"/>
<defs>
<linearGradient id="paint0_linear_73_312" x1="161" y1="60" x2="2.50944" y2="60" gradientUnits="userSpaceOnUse">
<stop stop-color="#8EE901"/>
<stop offset="1" stop-color="#4F9C2C"/>
</linearGradient>
</defs>
</svg>
