<svg width="14" height="10" viewBox="0 0 14 10" fill="none" xmlns="http://www.w3.org/2000/svg">
<path d="M9.08865 4.98544L13.0017 1.47623C13.1838 1.3107 13.2004 1.0293 13.0348 0.843912C12.8693 0.66183 12.5879 0.645277 12.4025 0.810806L7.0063 5.65417L5.95354 4.71397C5.95023 4.71066 5.94692 4.70735 5.94692 4.70404C5.92374 4.68086 5.90057 4.661 5.87408 4.64114L1.59021 0.807495C1.40481 0.641967 1.12341 0.65852 0.957886 0.843912C0.792357 1.0293 0.80891 1.3107 0.994302 1.47623L4.95374 5.01523L1.01086 8.70652C0.832084 8.87536 0.822153 9.15675 0.990992 9.33884C1.08038 9.43153 1.19956 9.48119 1.31874 9.48119C1.42799 9.48119 1.53724 9.44146 1.62331 9.36201L5.62579 5.61775L6.71166 6.58775C6.79773 6.6639 6.90367 6.70031 7.00961 6.70031C7.11555 6.70031 7.2248 6.66058 7.30756 6.58444L8.42322 5.58465L12.4025 9.36532C12.4886 9.44809 12.6012 9.48781 12.7104 9.48781C12.8296 9.48781 12.9455 9.44146 13.0348 9.34877C13.2037 9.17 13.1971 8.88529 13.0183 8.71645L9.08865 4.98544Z" fill="white"/>
</svg>
